<?xml version="1.0" standalone="no"?>
 <!DOCTYPE svg PUBLIC "-//W3C//DTD SVG 1.1//EN" 
 "http://www.w3.org/Graphics/SVG/1.1/DTD/svg11.dtd"> 
<svg
  xmlns:svg="http://www.w3.org/2000/svg"
  xmlns="http://www.w3.org/2000/svg"
  xmlns:xlink="http://www.w3.org/1999/xlink"
  version="1.1"
  width="297.0022mm" height="210.0072mm" viewBox="0.0000 0.0000 297.0022 210.0072">
<title>SVG Image created as x180-B_Paste.svg date 2025/10/01 01:41:37 </title>
  <desc>Image generated by PCBNEW </desc>
<g style="fill:#000000; fill-opacity:1.0000;stroke:#000000; stroke-opacity:1.0000;
stroke-linecap:round; stroke-linejoin:round;"
 transform="translate(0 0) scale(1 1)">
</g>
<g style="fill:none; 
stroke:#C872AB; stroke-width:0.1500; stroke-opacity:1; 
stroke-linecap:round; stroke-linejoin:round;">
<path d="M177.0022 166.0072
L285.0022 166.0072
L285.0022 198.0072
L177.0022 198.0072
L177.0022 166.0072
" />
</g>
<g style="fill:none; 
stroke:#C872AB; stroke-width:0.1500; stroke-opacity:1; 
stroke-linecap:round; stroke-linejoin:round;">
<path d="M10.0000 10.0000
L287.0022 10.0000
L287.0022 200.0072
L10.0000 200.0072
L10.0000 10.0000
" />
</g>
<g style="fill:none; 
stroke:#C872AB; stroke-width:0.1500; stroke-opacity:1; 
stroke-linecap:round; stroke-linejoin:round;">
<path d="M12.0000 12.0000
L285.0022 12.0000
L285.0022 198.0072
L12.0000 198.0072
L12.0000 12.0000
" />
</g>
<g style="fill:none; 
stroke:#C872AB; stroke-width:0.1500; stroke-opacity:1; 
stroke-linecap:round; stroke-linejoin:round;">
<path d="M60.0000 12.0000
L60.0000 10.0000
" />
</g>
<g style="fill:none; 
stroke:#C872AB; stroke-width:0.1500; stroke-opacity:1; 
stroke-linecap:round; stroke-linejoin:round;">
<path d="M110.0000 12.0000
L110.0000 10.0000
" />
</g>
<g style="fill:none; 
stroke:#C872AB; stroke-width:0.1500; stroke-opacity:1; 
stroke-linecap:round; stroke-linejoin:round;">
<path d="M160.0000 12.0000
L160.0000 10.0000
" />
</g>
<g style="fill:none; 
stroke:#C872AB; stroke-width:0.1500; stroke-opacity:1; 
stroke-linecap:round; stroke-linejoin:round;">
<path d="M210.0000 12.0000
L210.0000 10.0000
" />
</g>
<g style="fill:none; 
stroke:#C872AB; stroke-width:0.1500; stroke-opacity:1; 
stroke-linecap:round; stroke-linejoin:round;">
<path d="M260.0000 12.0000
L260.0000 10.0000
" />
</g>
<g style="fill:none; 
stroke:#C872AB; stroke-width:0.1500; stroke-opacity:1; 
stroke-linecap:round; stroke-linejoin:round;">
<text x="35.0000" y="11.6500"
textLength="1.4281" font-size="1.7333" lengthAdjust="spacingAndGlyphs"
text-anchor="start" opacity="0" stroke-opacity="0">1</text>
<g class="stroked-text"><desc>1</desc>
<path d="M36.0892 11.5936
L35.3463 11.5936
" />
<path d="M35.7177 11.5936
L35.7177 10.2936
" />
<path d="M35.7177 10.2936
L35.5939 10.4793
" />
<path d="M35.5939 10.4793
L35.4701 10.6031
" />
<path d="M35.4701 10.6031
L35.3463 10.6650
" />
</g></g>
<g style="fill:none; 
stroke:#C872AB; stroke-width:0.1500; stroke-opacity:1; 
stroke-linecap:round; stroke-linejoin:round;">
<text x="85.0000" y="11.6500"
textLength="1.4281" font-size="1.7333" lengthAdjust="spacingAndGlyphs"
text-anchor="start" opacity="0" stroke-opacity="0">2</text>
<g class="stroked-text"><desc>2</desc>
<path d="M85.3463 10.4174
L85.4082 10.3555
" />
<path d="M85.4082 10.3555
L85.5320 10.2936
" />
<path d="M85.5320 10.2936
L85.8415 10.2936
" />
<path d="M85.8415 10.2936
L85.9654 10.3555
" />
<path d="M85.9654 10.3555
L86.0273 10.4174
" />
<path d="M86.0273 10.4174
L86.0892 10.5412
" />
<path d="M86.0892 10.5412
L86.0892 10.6650
" />
<path d="M86.0892 10.6650
L86.0273 10.8507
" />
<path d="M86.0273 10.8507
L85.2844 11.5936
" />
<path d="M85.2844 11.5936
L86.0892 11.5936
" />
</g></g>
<g style="fill:none; 
stroke:#C872AB; stroke-width:0.1500; stroke-opacity:1; 
stroke-linecap:round; stroke-linejoin:round;">
<text x="135.0000" y="11.6500"
textLength="1.4281" font-size="1.7333" lengthAdjust="spacingAndGlyphs"
text-anchor="start" opacity="0" stroke-opacity="0">3</text>
<g class="stroked-text"><desc>3</desc>
<path d="M135.2844 10.2936
L136.0892 10.2936
" />
<path d="M136.0892 10.2936
L135.6558 10.7888
" />
<path d="M135.6558 10.7888
L135.8415 10.7888
" />
<path d="M135.8415 10.7888
L135.9654 10.8507
" />
<path d="M135.9654 10.8507
L136.0273 10.9127
" />
<path d="M136.0273 10.9127
L136.0892 11.0365
" />
<path d="M136.0892 11.0365
L136.0892 11.3460
" />
<path d="M136.0892 11.3460
L136.0273 11.4698
" />
<path d="M136.0273 11.4698
L135.9654 11.5317
" />
<path d="M135.9654 11.5317
L135.8415 11.5936
" />
<path d="M135.8415 11.5936
L135.4701 11.5936
" />
<path d="M135.4701 11.5936
L135.3463 11.5317
" />
<path d="M135.3463 11.5317
L135.2844 11.4698
" />
</g></g>
<g style="fill:none; 
stroke:#C872AB; stroke-width:0.1500; stroke-opacity:1; 
stroke-linecap:round; stroke-linejoin:round;">
<text x="185.0000" y="11.6500"
textLength="1.4281" font-size="1.7333" lengthAdjust="spacingAndGlyphs"
text-anchor="start" opacity="0" stroke-opacity="0">4</text>
<g class="stroked-text"><desc>4</desc>
<path d="M185.9654 10.7269
L185.9654 11.5936
" />
<path d="M185.6558 10.2317
L185.3463 11.1603
" />
<path d="M185.3463 11.1603
L186.1511 11.1603
" />
</g></g>
<g style="fill:none; 
stroke:#C872AB; stroke-width:0.1500; stroke-opacity:1; 
stroke-linecap:round; stroke-linejoin:round;">
<text x="235.0000" y="11.6500"
textLength="1.4281" font-size="1.7333" lengthAdjust="spacingAndGlyphs"
text-anchor="start" opacity="0" stroke-opacity="0">5</text>
<g class="stroked-text"><desc>5</desc>
<path d="M236.0273 10.2936
L235.4082 10.2936
" />
<path d="M235.4082 10.2936
L235.3463 10.9127
" />
<path d="M235.3463 10.9127
L235.4082 10.8507
" />
<path d="M235.4082 10.8507
L235.5320 10.7888
" />
<path d="M235.5320 10.7888
L235.8415 10.7888
" />
<path d="M235.8415 10.7888
L235.9654 10.8507
" />
<path d="M235.9654 10.8507
L236.0273 10.9127
" />
<path d="M236.0273 10.9127
L236.0892 11.0365
" />
<path d="M236.0892 11.0365
L236.0892 11.3460
" />
<path d="M236.0892 11.3460
L236.0273 11.4698
" />
<path d="M236.0273 11.4698
L235.9654 11.5317
" />
<path d="M235.9654 11.5317
L235.8415 11.5936
" />
<path d="M235.8415 11.5936
L235.5320 11.5936
" />
<path d="M235.5320 11.5936
L235.4082 11.5317
" />
<path d="M235.4082 11.5317
L235.3463 11.4698
" />
</g></g>
<g style="fill:none; 
stroke:#C872AB; stroke-width:0.1500; stroke-opacity:1; 
stroke-linecap:round; stroke-linejoin:round;">
<text x="285.0000" y="11.6500"
textLength="1.4281" font-size="1.7333" lengthAdjust="spacingAndGlyphs"
text-anchor="start" opacity="0" stroke-opacity="0">6</text>
<g class="stroked-text"><desc>6</desc>
<path d="M285.9654 10.2936
L285.7177 10.2936
" />
<path d="M285.7177 10.2936
L285.5939 10.3555
" />
<path d="M285.5939 10.3555
L285.5320 10.4174
" />
<path d="M285.5320 10.4174
L285.4082 10.6031
" />
<path d="M285.4082 10.6031
L285.3463 10.8507
" />
<path d="M285.3463 10.8507
L285.3463 11.3460
" />
<path d="M285.3463 11.3460
L285.4082 11.4698
" />
<path d="M285.4082 11.4698
L285.4701 11.5317
" />
<path d="M285.4701 11.5317
L285.5939 11.5936
" />
<path d="M285.5939 11.5936
L285.8415 11.5936
" />
<path d="M285.8415 11.5936
L285.9654 11.5317
" />
<path d="M285.9654 11.5317
L286.0273 11.4698
" />
<path d="M286.0273 11.4698
L286.0892 11.3460
" />
<path d="M286.0892 11.3460
L286.0892 11.0365
" />
<path d="M286.0892 11.0365
L286.0273 10.9127
" />
<path d="M286.0273 10.9127
L285.9654 10.8507
" />
<path d="M285.9654 10.8507
L285.8415 10.7888
" />
<path d="M285.8415 10.7888
L285.5939 10.7888
" />
<path d="M285.5939 10.7888
L285.4701 10.8507
" />
<path d="M285.4701 10.8507
L285.4082 10.9127
" />
<path d="M285.4082 10.9127
L285.3463 11.0365
" />
</g></g>
<g style="fill:none; 
stroke:#C872AB; stroke-width:0.1500; stroke-opacity:1; 
stroke-linecap:round; stroke-linejoin:round;">
<path d="M60.0000 198.0072
L60.0000 200.0072
" />
</g>
<g style="fill:none; 
stroke:#C872AB; stroke-width:0.1500; stroke-opacity:1; 
stroke-linecap:round; stroke-linejoin:round;">
<path d="M110.0000 198.0072
L110.0000 200.0072
" />
</g>
<g style="fill:none; 
stroke:#C872AB; stroke-width:0.1500; stroke-opacity:1; 
stroke-linecap:round; stroke-linejoin:round;">
<path d="M160.0000 198.0072
L160.0000 200.0072
" />
</g>
<g style="fill:none; 
stroke:#C872AB; stroke-width:0.1500; stroke-opacity:1; 
stroke-linecap:round; stroke-linejoin:round;">
<path d="M210.0000 198.0072
L210.0000 200.0072
" />
</g>
<g style="fill:none; 
stroke:#C872AB; stroke-width:0.1500; stroke-opacity:1; 
stroke-linecap:round; stroke-linejoin:round;">
<path d="M260.0000 198.0072
L260.0000 200.0072
" />
</g>
<g style="fill:none; 
stroke:#C872AB; stroke-width:0.1500; stroke-opacity:1; 
stroke-linecap:round; stroke-linejoin:round;">
<text x="35.0000" y="199.6572"
textLength="1.4281" font-size="1.7333" lengthAdjust="spacingAndGlyphs"
text-anchor="start" opacity="0" stroke-opacity="0">1</text>
<g class="stroked-text"><desc>1</desc>
<path d="M36.0892 199.6008
L35.3463 199.6008
" />
<path d="M35.7177 199.6008
L35.7177 198.3008
" />
<path d="M35.7177 198.3008
L35.5939 198.4865
" />
<path d="M35.5939 198.4865
L35.4701 198.6103
" />
<path d="M35.4701 198.6103
L35.3463 198.6722
" />
</g></g>
<g style="fill:none; 
stroke:#C872AB; stroke-width:0.1500; stroke-opacity:1; 
stroke-linecap:round; stroke-linejoin:round;">
<text x="85.0000" y="199.6572"
textLength="1.4281" font-size="1.7333" lengthAdjust="spacingAndGlyphs"
text-anchor="start" opacity="0" stroke-opacity="0">2</text>
<g class="stroked-text"><desc>2</desc>
<path d="M85.3463 198.4246
L85.4082 198.3627
" />
<path d="M85.4082 198.3627
L85.5320 198.3008
" />
<path d="M85.5320 198.3008
L85.8415 198.3008
" />
<path d="M85.8415 198.3008
L85.9654 198.3627
" />
<path d="M85.9654 198.3627
L86.0273 198.4246
" />
<path d="M86.0273 198.4246
L86.0892 198.5484
" />
<path d="M86.0892 198.5484
L86.0892 198.6722
" />
<path d="M86.0892 198.6722
L86.0273 198.8579
" />
<path d="M86.0273 198.8579
L85.2844 199.6008
" />
<path d="M85.2844 199.6008
L86.0892 199.6008
" />
</g></g>
<g style="fill:none; 
stroke:#C872AB; stroke-width:0.1500; stroke-opacity:1; 
stroke-linecap:round; stroke-linejoin:round;">
<text x="135.0000" y="199.6572"
textLength="1.4281" font-size="1.7333" lengthAdjust="spacingAndGlyphs"
text-anchor="start" opacity="0" stroke-opacity="0">3</text>
<g class="stroked-text"><desc>3</desc>
<path d="M135.2844 198.3008
L136.0892 198.3008
" />
<path d="M136.0892 198.3008
L135.6558 198.7960
" />
<path d="M135.6558 198.7960
L135.8415 198.7960
" />
<path d="M135.8415 198.7960
L135.9654 198.8579
" />
<path d="M135.9654 198.8579
L136.0273 198.9199
" />
<path d="M136.0273 198.9199
L136.0892 199.0437
" />
<path d="M136.0892 199.0437
L136.0892 199.3532
" />
<path d="M136.0892 199.3532
L136.0273 199.4770
" />
<path d="M136.0273 199.4770
L135.9654 199.5389
" />
<path d="M135.9654 199.5389
L135.8415 199.6008
" />
<path d="M135.8415 199.6008
L135.4701 199.6008
" />
<path d="M135.4701 199.6008
L135.3463 199.5389
" />
<path d="M135.3463 199.5389
L135.2844 199.4770
" />
</g></g>
<g style="fill:none; 
stroke:#C872AB; stroke-width:0.1500; stroke-opacity:1; 
stroke-linecap:round; stroke-linejoin:round;">
<text x="185.0000" y="199.6572"
textLength="1.4281" font-size="1.7333" lengthAdjust="spacingAndGlyphs"
text-anchor="start" opacity="0" stroke-opacity="0">4</text>
<g class="stroked-text"><desc>4</desc>
<path d="M185.9654 198.7341
L185.9654 199.6008
" />
<path d="M185.6558 198.2389
L185.3463 199.1675
" />
<path d="M185.3463 199.1675
L186.1511 199.1675
" />
</g></g>
<g style="fill:none; 
stroke:#C872AB; stroke-width:0.1500; stroke-opacity:1; 
stroke-linecap:round; stroke-linejoin:round;">
<text x="235.0000" y="199.6572"
textLength="1.4281" font-size="1.7333" lengthAdjust="spacingAndGlyphs"
text-anchor="start" opacity="0" stroke-opacity="0">5</text>
<g class="stroked-text"><desc>5</desc>
<path d="M236.0273 198.3008
L235.4082 198.3008
" />
<path d="M235.4082 198.3008
L235.3463 198.9199
" />
<path d="M235.3463 198.9199
L235.4082 198.8579
" />
<path d="M235.4082 198.8579
L235.5320 198.7960
" />
<path d="M235.5320 198.7960
L235.8415 198.7960
" />
<path d="M235.8415 198.7960
L235.9654 198.8579
" />
<path d="M235.9654 198.8579
L236.0273 198.9199
" />
<path d="M236.0273 198.9199
L236.0892 199.0437
" />
<path d="M236.0892 199.0437
L236.0892 199.3532
" />
<path d="M236.0892 199.3532
L236.0273 199.4770
" />
<path d="M236.0273 199.4770
L235.9654 199.5389
" />
<path d="M235.9654 199.5389
L235.8415 199.6008
" />
<path d="M235.8415 199.6008
L235.5320 199.6008
" />
<path d="M235.5320 199.6008
L235.4082 199.5389
" />
<path d="M235.4082 199.5389
L235.3463 199.4770
" />
</g></g>
<g style="fill:none; 
stroke:#C872AB; stroke-width:0.1500; stroke-opacity:1; 
stroke-linecap:round; stroke-linejoin:round;">
<text x="285.0000" y="199.6572"
textLength="1.4281" font-size="1.7333" lengthAdjust="spacingAndGlyphs"
text-anchor="start" opacity="0" stroke-opacity="0">6</text>
<g class="stroked-text"><desc>6</desc>
<path d="M285.9654 198.3008
L285.7177 198.3008
" />
<path d="M285.7177 198.3008
L285.5939 198.3627
" />
<path d="M285.5939 198.3627
L285.5320 198.4246
" />
<path d="M285.5320 198.4246
L285.4082 198.6103
" />
<path d="M285.4082 198.6103
L285.3463 198.8579
" />
<path d="M285.3463 198.8579
L285.3463 199.3532
" />
<path d="M285.3463 199.3532
L285.4082 199.4770
" />
<path d="M285.4082 199.4770
L285.4701 199.5389
" />
<path d="M285.4701 199.5389
L285.5939 199.6008
" />
<path d="M285.5939 199.6008
L285.8415 199.6008
" />
<path d="M285.8415 199.6008
L285.9654 199.5389
" />
<path d="M285.9654 199.5389
L286.0273 199.4770
" />
<path d="M286.0273 199.4770
L286.0892 199.3532
" />
<path d="M286.0892 199.3532
L286.0892 199.0437
" />
<path d="M286.0892 199.0437
L286.0273 198.9199
" />
<path d="M286.0273 198.9199
L285.9654 198.8579
" />
<path d="M285.9654 198.8579
L285.8415 198.7960
" />
<path d="M285.8415 198.7960
L285.5939 198.7960
" />
<path d="M285.5939 198.7960
L285.4701 198.8579
" />
<path d="M285.4701 198.8579
L285.4082 198.9199
" />
<path d="M285.4082 198.9199
L285.3463 199.0437
" />
</g></g>
<g style="fill:none; 
stroke:#C872AB; stroke-width:0.1500; stroke-opacity:1; 
stroke-linecap:round; stroke-linejoin:round;">
<path d="M10.0000 60.0000
L12.0000 60.0000
" />
</g>
<g style="fill:none; 
stroke:#C872AB; stroke-width:0.1500; stroke-opacity:1; 
stroke-linecap:round; stroke-linejoin:round;">
<path d="M10.0000 110.0000
L12.0000 110.0000
" />
</g>
<g style="fill:none; 
stroke:#C872AB; stroke-width:0.1500; stroke-opacity:1; 
stroke-linecap:round; stroke-linejoin:round;">
<path d="M10.0000 160.0000
L12.0000 160.0000
" />
</g>
<g style="fill:none; 
stroke:#C872AB; stroke-width:0.1500; stroke-opacity:1; 
stroke-linecap:round; stroke-linejoin:round;">
<text x="11.0000" y="35.6500"
textLength="1.3043" font-size="1.7333" lengthAdjust="spacingAndGlyphs"
text-anchor="middle" opacity="0" stroke-opacity="0">A</text>
<g class="stroked-text"><desc>A</desc>
<path d="M10.6905 35.2222
L11.3095 35.2222
" />
<path d="M10.5667 35.5936
L11.0000 34.2936
" />
<path d="M11.0000 34.2936
L11.4333 35.5936
" />
</g></g>
<g style="fill:none; 
stroke:#C872AB; stroke-width:0.1500; stroke-opacity:1; 
stroke-linecap:round; stroke-linejoin:round;">
<text x="11.0000" y="85.6500"
textLength="1.4900" font-size="1.7333" lengthAdjust="spacingAndGlyphs"
text-anchor="middle" opacity="0" stroke-opacity="0">B</text>
<g class="stroked-text"><desc>B</desc>
<path d="M11.0929 84.9127
L11.2786 84.9746
" />
<path d="M11.2786 84.9746
L11.3405 85.0365
" />
<path d="M11.3405 85.0365
L11.4024 85.1603
" />
<path d="M11.4024 85.1603
L11.4024 85.3460
" />
<path d="M11.4024 85.3460
L11.3405 85.4698
" />
<path d="M11.3405 85.4698
L11.2786 85.5317
" />
<path d="M11.2786 85.5317
L11.1548 85.5936
" />
<path d="M11.1548 85.5936
L10.6595 85.5936
" />
<path d="M10.6595 85.5936
L10.6595 84.2936
" />
<path d="M10.6595 84.2936
L11.0929 84.2936
" />
<path d="M11.0929 84.2936
L11.2167 84.3555
" />
<path d="M11.2167 84.3555
L11.2786 84.4174
" />
<path d="M11.2786 84.4174
L11.3405 84.5412
" />
<path d="M11.3405 84.5412
L11.3405 84.6650
" />
<path d="M11.3405 84.6650
L11.2786 84.7888
" />
<path d="M11.2786 84.7888
L11.2167 84.8507
" />
<path d="M11.2167 84.8507
L11.0929 84.9127
" />
<path d="M11.0929 84.9127
L10.6595 84.9127
" />
</g></g>
<g style="fill:none; 
stroke:#C872AB; stroke-width:0.1500; stroke-opacity:1; 
stroke-linecap:round; stroke-linejoin:round;">
<text x="11.0000" y="135.6500"
textLength="1.4900" font-size="1.7333" lengthAdjust="spacingAndGlyphs"
text-anchor="middle" opacity="0" stroke-opacity="0">C</text>
<g class="stroked-text"><desc>C</desc>
<path d="M11.4024 135.4698
L11.3405 135.5317
" />
<path d="M11.3405 135.5317
L11.1548 135.5936
" />
<path d="M11.1548 135.5936
L11.0310 135.5936
" />
<path d="M11.0310 135.5936
L10.8452 135.5317
" />
<path d="M10.8452 135.5317
L10.7214 135.4079
" />
<path d="M10.7214 135.4079
L10.6595 135.2841
" />
<path d="M10.6595 135.2841
L10.5976 135.0365
" />
<path d="M10.5976 135.0365
L10.5976 134.8507
" />
<path d="M10.5976 134.8507
L10.6595 134.6031
" />
<path d="M10.6595 134.6031
L10.7214 134.4793
" />
<path d="M10.7214 134.4793
L10.8452 134.3555
" />
<path d="M10.8452 134.3555
L11.0310 134.2936
" />
<path d="M11.0310 134.2936
L11.1548 134.2936
" />
<path d="M11.1548 134.2936
L11.3405 134.3555
" />
<path d="M11.3405 134.3555
L11.4024 134.4174
" />
</g></g>
<g style="fill:none; 
stroke:#C872AB; stroke-width:0.1500; stroke-opacity:1; 
stroke-linecap:round; stroke-linejoin:round;">
<text x="11.0000" y="185.6500"
textLength="1.4900" font-size="1.7333" lengthAdjust="spacingAndGlyphs"
text-anchor="middle" opacity="0" stroke-opacity="0">D</text>
<g class="stroked-text"><desc>D</desc>
<path d="M10.6595 185.5936
L10.6595 184.2936
" />
<path d="M10.6595 184.2936
L10.9690 184.2936
" />
<path d="M10.9690 184.2936
L11.1548 184.3555
" />
<path d="M11.1548 184.3555
L11.2786 184.4793
" />
<path d="M11.2786 184.4793
L11.3405 184.6031
" />
<path d="M11.3405 184.6031
L11.4024 184.8507
" />
<path d="M11.4024 184.8507
L11.4024 185.0365
" />
<path d="M11.4024 185.0365
L11.3405 185.2841
" />
<path d="M11.3405 185.2841
L11.2786 185.4079
" />
<path d="M11.2786 185.4079
L11.1548 185.5317
" />
<path d="M11.1548 185.5317
L10.9690 185.5936
" />
<path d="M10.9690 185.5936
L10.6595 185.5936
" />
</g></g>
<g style="fill:none; 
stroke:#C872AB; stroke-width:0.1500; stroke-opacity:1; 
stroke-linecap:round; stroke-linejoin:round;">
<path d="M287.0022 60.0000
L285.0022 60.0000
" />
</g>
<g style="fill:none; 
stroke:#C872AB; stroke-width:0.1500; stroke-opacity:1; 
stroke-linecap:round; stroke-linejoin:round;">
<path d="M287.0022 110.0000
L285.0022 110.0000
" />
</g>
<g style="fill:none; 
stroke:#C872AB; stroke-width:0.1500; stroke-opacity:1; 
stroke-linecap:round; stroke-linejoin:round;">
<path d="M287.0022 160.0000
L285.0022 160.0000
" />
</g>
<g style="fill:none; 
stroke:#C872AB; stroke-width:0.1500; stroke-opacity:1; 
stroke-linecap:round; stroke-linejoin:round;">
<text x="286.0022" y="35.6500"
textLength="1.3043" font-size="1.7333" lengthAdjust="spacingAndGlyphs"
text-anchor="middle" opacity="0" stroke-opacity="0">A</text>
<g class="stroked-text"><desc>A</desc>
<path d="M285.6927 35.2222
L286.3117 35.2222
" />
<path d="M285.5689 35.5936
L286.0022 34.2936
" />
<path d="M286.0022 34.2936
L286.4355 35.5936
" />
</g></g>
<g style="fill:none; 
stroke:#C872AB; stroke-width:0.1500; stroke-opacity:1; 
stroke-linecap:round; stroke-linejoin:round;">
<text x="286.0022" y="85.6500"
textLength="1.4900" font-size="1.7333" lengthAdjust="spacingAndGlyphs"
text-anchor="middle" opacity="0" stroke-opacity="0">B</text>
<g class="stroked-text"><desc>B</desc>
<path d="M286.0951 84.9127
L286.2808 84.9746
" />
<path d="M286.2808 84.9746
L286.3427 85.0365
" />
<path d="M286.3427 85.0365
L286.4046 85.1603
" />
<path d="M286.4046 85.1603
L286.4046 85.3460
" />
<path d="M286.4046 85.3460
L286.3427 85.4698
" />
<path d="M286.3427 85.4698
L286.2808 85.5317
" />
<path d="M286.2808 85.5317
L286.1570 85.5936
" />
<path d="M286.1570 85.5936
L285.6617 85.5936
" />
<path d="M285.6617 85.5936
L285.6617 84.2936
" />
<path d="M285.6617 84.2936
L286.0951 84.2936
" />
<path d="M286.0951 84.2936
L286.2189 84.3555
" />
<path d="M286.2189 84.3555
L286.2808 84.4174
" />
<path d="M286.2808 84.4174
L286.3427 84.5412
" />
<path d="M286.3427 84.5412
L286.3427 84.6650
" />
<path d="M286.3427 84.6650
L286.2808 84.7888
" />
<path d="M286.2808 84.7888
L286.2189 84.8507
" />
<path d="M286.2189 84.8507
L286.0951 84.9127
" />
<path d="M286.0951 84.9127
L285.6617 84.9127
" />
</g></g>
<g style="fill:none; 
stroke:#C872AB; stroke-width:0.1500; stroke-opacity:1; 
stroke-linecap:round; stroke-linejoin:round;">
<text x="286.0022" y="135.6500"
textLength="1.4900" font-size="1.7333" lengthAdjust="spacingAndGlyphs"
text-anchor="middle" opacity="0" stroke-opacity="0">C</text>
<g class="stroked-text"><desc>C</desc>
<path d="M286.4046 135.4698
L286.3427 135.5317
" />
<path d="M286.3427 135.5317
L286.1570 135.5936
" />
<path d="M286.1570 135.5936
L286.0332 135.5936
" />
<path d="M286.0332 135.5936
L285.8474 135.5317
" />
<path d="M285.8474 135.5317
L285.7236 135.4079
" />
<path d="M285.7236 135.4079
L285.6617 135.2841
" />
<path d="M285.6617 135.2841
L285.5998 135.0365
" />
<path d="M285.5998 135.0365
L285.5998 134.8507
" />
<path d="M285.5998 134.8507
L285.6617 134.6031
" />
<path d="M285.6617 134.6031
L285.7236 134.4793
" />
<path d="M285.7236 134.4793
L285.8474 134.3555
" />
<path d="M285.8474 134.3555
L286.0332 134.2936
" />
<path d="M286.0332 134.2936
L286.1570 134.2936
" />
<path d="M286.1570 134.2936
L286.3427 134.3555
" />
<path d="M286.3427 134.3555
L286.4046 134.4174
" />
</g></g>
<g style="fill:none; 
stroke:#C872AB; stroke-width:0.1500; stroke-opacity:1; 
stroke-linecap:round; stroke-linejoin:round;">
<text x="286.0022" y="185.6500"
textLength="1.4900" font-size="1.7333" lengthAdjust="spacingAndGlyphs"
text-anchor="middle" opacity="0" stroke-opacity="0">D</text>
<g class="stroked-text"><desc>D</desc>
<path d="M285.6617 185.5936
L285.6617 184.2936
" />
<path d="M285.6617 184.2936
L285.9712 184.2936
" />
<path d="M285.9712 184.2936
L286.1570 184.3555
" />
<path d="M286.1570 184.3555
L286.2808 184.4793
" />
<path d="M286.2808 184.4793
L286.3427 184.6031
" />
<path d="M286.3427 184.6031
L286.4046 184.8507
" />
<path d="M286.4046 184.8507
L286.4046 185.0365
" />
<path d="M286.4046 185.0365
L286.3427 185.2841
" />
<path d="M286.3427 185.2841
L286.2808 185.4079
" />
<path d="M286.2808 185.4079
L286.1570 185.5317
" />
<path d="M286.1570 185.5317
L285.9712 185.5936
" />
<path d="M285.9712 185.5936
L285.6617 185.5936
" />
</g></g>
<g style="fill:none; 
stroke:#C872AB; stroke-width:0.1500; stroke-opacity:1; 
stroke-linecap:round; stroke-linejoin:round;">
<text x="200.0022" y="193.8572"
textLength="7.0071" font-size="2.0000" lengthAdjust="spacingAndGlyphs"
text-anchor="start" opacity="0" stroke-opacity="0">Date: </text>
<g class="stroked-text"><desc>Date: </desc>
<path d="M200.4580 193.7933
L200.4580 192.2933
" />
<path d="M200.4580 192.2933
L200.8152 192.2933
" />
<path d="M200.8152 192.2933
L201.0295 192.3648
" />
<path d="M201.0295 192.3648
L201.1723 192.5076
" />
<path d="M201.1723 192.5076
L201.2437 192.6505
" />
<path d="M201.2437 192.6505
L201.3152 192.9362
" />
<path d="M201.3152 192.9362
L201.3152 193.1505
" />
<path d="M201.3152 193.1505
L201.2437 193.4362
" />
<path d="M201.2437 193.4362
L201.1723 193.5790
" />
<path d="M201.1723 193.5790
L201.0295 193.7219
" />
<path d="M201.0295 193.7219
L200.8152 193.7933
" />
<path d="M200.8152 193.7933
L200.4580 193.7933
" />
<path d="M202.6009 193.7933
L202.6009 193.0076
" />
<path d="M202.6009 193.0076
L202.5295 192.8648
" />
<path d="M202.5295 192.8648
L202.3866 192.7933
" />
<path d="M202.3866 192.7933
L202.1009 192.7933
" />
<path d="M202.1009 192.7933
L201.9580 192.8648
" />
<path d="M202.6009 193.7219
L202.4580 193.7933
" />
<path d="M202.4580 193.7933
L202.1009 193.7933
" />
<path d="M202.1009 193.7933
L201.9580 193.7219
" />
<path d="M201.9580 193.7219
L201.8866 193.5790
" />
<path d="M201.8866 193.5790
L201.8866 193.4362
" />
<path d="M201.8866 193.4362
L201.9580 193.2933
" />
<path d="M201.9580 193.2933
L202.1009 193.2219
" />
<path d="M202.1009 193.2219
L202.4580 193.2219
" />
<path d="M202.4580 193.2219
L202.6009 193.1505
" />
<path d="M203.1009 192.7933
L203.6723 192.7933
" />
<path d="M203.3152 192.2933
L203.3152 193.5790
" />
<path d="M203.3152 193.5790
L203.3866 193.7219
" />
<path d="M203.3866 193.7219
L203.5295 193.7933
" />
<path d="M203.5295 193.7933
L203.6723 193.7933
" />
<path d="M204.7437 193.7219
L204.6009 193.7933
" />
<path d="M204.6009 193.7933
L204.3152 193.7933
" />
<path d="M204.3152 193.7933
L204.1723 193.7219
" />
<path d="M204.1723 193.7219
L204.1009 193.5790
" />
<path d="M204.1009 193.5790
L204.1009 193.0076
" />
<path d="M204.1009 193.0076
L204.1723 192.8648
" />
<path d="M204.1723 192.8648
L204.3152 192.7933
" />
<path d="M204.3152 192.7933
L204.6009 192.7933
" />
<path d="M204.6009 192.7933
L204.7437 192.8648
" />
<path d="M204.7437 192.8648
L204.8152 193.0076
" />
<path d="M204.8152 193.0076
L204.8152 193.1505
" />
<path d="M204.8152 193.1505
L204.1009 193.2933
" />
<path d="M205.4580 193.6505
L205.5295 193.7219
" />
<path d="M205.5295 193.7219
L205.4580 193.7933
" />
<path d="M205.4580 193.7933
L205.3866 193.7219
" />
<path d="M205.3866 193.7219
L205.4580 193.6505
" />
<path d="M205.4580 193.6505
L205.4580 193.7933
" />
<path d="M205.4580 192.8648
L205.5295 192.9362
" />
<path d="M205.5295 192.9362
L205.4580 193.0076
" />
<path d="M205.4580 193.0076
L205.3866 192.9362
" />
<path d="M205.3866 192.9362
L205.4580 192.8648
" />
<path d="M205.4580 192.8648
L205.4580 193.0076
" />
</g></g>
<g style="fill:none; 
stroke:#C872AB; stroke-width:0.1500; stroke-opacity:1; 
stroke-linecap:round; stroke-linejoin:round;">
<path d="M177.0022 194.5072
L285.0022 194.5072
" />
</g>
<g style="fill:none; 
stroke:#C872AB; stroke-width:0.1500; stroke-opacity:1; 
stroke-linecap:round; stroke-linejoin:round;">
<text x="178.0022" y="196.6572"
textLength="20.8643" font-size="2.0000" lengthAdjust="spacingAndGlyphs"
text-anchor="start" opacity="0" stroke-opacity="0">KiCad E.D.A. 9.0.4</text>
<g class="stroked-text"><desc>KiCad E.D.A. 9.0.4</desc>
<path d="M178.4580 196.5933
L178.4580 195.0933
" />
<path d="M179.3152 196.5933
L178.6723 195.7362
" />
<path d="M179.3152 195.0933
L178.4580 195.9505
" />
<path d="M179.9580 196.5933
L179.9580 195.5933
" />
<path d="M179.9580 195.0933
L179.8866 195.1648
" />
<path d="M179.8866 195.1648
L179.9580 195.2362
" />
<path d="M179.9580 195.2362
L180.0295 195.1648
" />
<path d="M180.0295 195.1648
L179.9580 195.0933
" />
<path d="M179.9580 195.0933
L179.9580 195.2362
" />
<path d="M181.5295 196.4505
L181.4580 196.5219
" />
<path d="M181.4580 196.5219
L181.2437 196.5933
" />
<path d="M181.2437 196.5933
L181.1009 196.5933
" />
<path d="M181.1009 196.5933
L180.8866 196.5219
" />
<path d="M180.8866 196.5219
L180.7437 196.3790
" />
<path d="M180.7437 196.3790
L180.6723 196.2362
" />
<path d="M180.6723 196.2362
L180.6009 195.9505
" />
<path d="M180.6009 195.9505
L180.6009 195.7362
" />
<path d="M180.6009 195.7362
L180.6723 195.4505
" />
<path d="M180.6723 195.4505
L180.7437 195.3076
" />
<path d="M180.7437 195.3076
L180.8866 195.1648
" />
<path d="M180.8866 195.1648
L181.1009 195.0933
" />
<path d="M181.1009 195.0933
L181.2437 195.0933
" />
<path d="M181.2437 195.0933
L181.4580 195.1648
" />
<path d="M181.4580 195.1648
L181.5295 195.2362
" />
<path d="M182.8152 196.5933
L182.8152 195.8076
" />
<path d="M182.8152 195.8076
L182.7437 195.6648
" />
<path d="M182.7437 195.6648
L182.6009 195.5933
" />
<path d="M182.6009 195.5933
L182.3152 195.5933
" />
<path d="M182.3152 195.5933
L182.1723 195.6648
" />
<path d="M182.8152 196.5219
L182.6723 196.5933
" />
<path d="M182.6723 196.5933
L182.3152 196.5933
" />
<path d="M182.3152 196.5933
L182.1723 196.5219
" />
<path d="M182.1723 196.5219
L182.1009 196.3790
" />
<path d="M182.1009 196.3790
L182.1009 196.2362
" />
<path d="M182.1009 196.2362
L182.1723 196.0933
" />
<path d="M182.1723 196.0933
L182.3152 196.0219
" />
<path d="M182.3152 196.0219
L182.6723 196.0219
" />
<path d="M182.6723 196.0219
L182.8152 195.9505
" />
<path d="M184.1723 196.5933
L184.1723 195.0933
" />
<path d="M184.1723 196.5219
L184.0295 196.5933
" />
<path d="M184.0295 196.5933
L183.7437 196.5933
" />
<path d="M183.7437 196.5933
L183.6009 196.5219
" />
<path d="M183.6009 196.5219
L183.5295 196.4505
" />
<path d="M183.5295 196.4505
L183.4580 196.3076
" />
<path d="M183.4580 196.3076
L183.4580 195.8790
" />
<path d="M183.4580 195.8790
L183.5295 195.7362
" />
<path d="M183.5295 195.7362
L183.6009 195.6648
" />
<path d="M183.6009 195.6648
L183.7437 195.5933
" />
<path d="M183.7437 195.5933
L184.0295 195.5933
" />
<path d="M184.0295 195.5933
L184.1723 195.6648
" />
<path d="M186.0295 195.8076
L186.5295 195.8076
" />
<path d="M186.7437 196.5933
L186.0295 196.5933
" />
<path d="M186.0295 196.5933
L186.0295 195.0933
" />
<path d="M186.0295 195.0933
L186.7437 195.0933
" />
<path d="M187.3866 196.4505
L187.4580 196.5219
" />
<path d="M187.4580 196.5219
L187.3866 196.5933
" />
<path d="M187.3866 196.5933
L187.3152 196.5219
" />
<path d="M187.3152 196.5219
L187.3866 196.4505
" />
<path d="M187.3866 196.4505
L187.3866 196.5933
" />
<path d="M188.1009 196.5933
L188.1009 195.0933
" />
<path d="M188.1009 195.0933
L188.4580 195.0933
" />
<path d="M188.4580 195.0933
L188.6723 195.1648
" />
<path d="M188.6723 195.1648
L188.8152 195.3076
" />
<path d="M188.8152 195.3076
L188.8866 195.4505
" />
<path d="M188.8866 195.4505
L188.9580 195.7362
" />
<path d="M188.9580 195.7362
L188.9580 195.9505
" />
<path d="M188.9580 195.9505
L188.8866 196.2362
" />
<path d="M188.8866 196.2362
L188.8152 196.3790
" />
<path d="M188.8152 196.3790
L188.6723 196.5219
" />
<path d="M188.6723 196.5219
L188.4580 196.5933
" />
<path d="M188.4580 196.5933
L188.1009 196.5933
" />
<path d="M189.6009 196.4505
L189.6723 196.5219
" />
<path d="M189.6723 196.5219
L189.6009 196.5933
" />
<path d="M189.6009 196.5933
L189.5295 196.5219
" />
<path d="M189.5295 196.5219
L189.6009 196.4505
" />
<path d="M189.6009 196.4505
L189.6009 196.5933
" />
<path d="M190.2437 196.1648
L190.9580 196.1648
" />
<path d="M190.1009 196.5933
L190.6009 195.0933
" />
<path d="M190.6009 195.0933
L191.1009 196.5933
" />
<path d="M191.6009 196.4505
L191.6723 196.5219
" />
<path d="M191.6723 196.5219
L191.6009 196.5933
" />
<path d="M191.6009 196.5933
L191.5295 196.5219
" />
<path d="M191.5295 196.5219
L191.6009 196.4505
" />
<path d="M191.6009 196.4505
L191.6009 196.5933
" />
<path d="M193.5295 196.5933
L193.8152 196.5933
" />
<path d="M193.8152 196.5933
L193.9580 196.5219
" />
<path d="M193.9580 196.5219
L194.0295 196.4505
" />
<path d="M194.0295 196.4505
L194.1723 196.2362
" />
<path d="M194.1723 196.2362
L194.2437 195.9505
" />
<path d="M194.2437 195.9505
L194.2437 195.3790
" />
<path d="M194.2437 195.3790
L194.1723 195.2362
" />
<path d="M194.1723 195.2362
L194.1009 195.1648
" />
<path d="M194.1009 195.1648
L193.9580 195.0933
" />
<path d="M193.9580 195.0933
L193.6723 195.0933
" />
<path d="M193.6723 195.0933
L193.5295 195.1648
" />
<path d="M193.5295 195.1648
L193.4580 195.2362
" />
<path d="M193.4580 195.2362
L193.3866 195.3790
" />
<path d="M193.3866 195.3790
L193.3866 195.7362
" />
<path d="M193.3866 195.7362
L193.4580 195.8790
" />
<path d="M193.4580 195.8790
L193.5295 195.9505
" />
<path d="M193.5295 195.9505
L193.6723 196.0219
" />
<path d="M193.6723 196.0219
L193.9580 196.0219
" />
<path d="M193.9580 196.0219
L194.1009 195.9505
" />
<path d="M194.1009 195.9505
L194.1723 195.8790
" />
<path d="M194.1723 195.8790
L194.2437 195.7362
" />
<path d="M194.8866 196.4505
L194.9580 196.5219
" />
<path d="M194.9580 196.5219
L194.8866 196.5933
" />
<path d="M194.8866 196.5933
L194.8152 196.5219
" />
<path d="M194.8152 196.5219
L194.8866 196.4505
" />
<path d="M194.8866 196.4505
L194.8866 196.5933
" />
<path d="M195.8866 195.0933
L196.0295 195.0933
" />
<path d="M196.0295 195.0933
L196.1723 195.1648
" />
<path d="M196.1723 195.1648
L196.2437 195.2362
" />
<path d="M196.2437 195.2362
L196.3152 195.3790
" />
<path d="M196.3152 195.3790
L196.3866 195.6648
" />
<path d="M196.3866 195.6648
L196.3866 196.0219
" />
<path d="M196.3866 196.0219
L196.3152 196.3076
" />
<path d="M196.3152 196.3076
L196.2437 196.4505
" />
<path d="M196.2437 196.4505
L196.1723 196.5219
" />
<path d="M196.1723 196.5219
L196.0295 196.5933
" />
<path d="M196.0295 196.5933
L195.8866 196.5933
" />
<path d="M195.8866 196.5933
L195.7437 196.5219
" />
<path d="M195.7437 196.5219
L195.6723 196.4505
" />
<path d="M195.6723 196.4505
L195.6009 196.3076
" />
<path d="M195.6009 196.3076
L195.5295 196.0219
" />
<path d="M195.5295 196.0219
L195.5295 195.6648
" />
<path d="M195.5295 195.6648
L195.6009 195.3790
" />
<path d="M195.6009 195.3790
L195.6723 195.2362
" />
<path d="M195.6723 195.2362
L195.7437 195.1648
" />
<path d="M195.7437 195.1648
L195.8866 195.0933
" />
<path d="M197.0295 196.4505
L197.1009 196.5219
" />
<path d="M197.1009 196.5219
L197.0295 196.5933
" />
<path d="M197.0295 196.5933
L196.9580 196.5219
" />
<path d="M196.9580 196.5219
L197.0295 196.4505
" />
<path d="M197.0295 196.4505
L197.0295 196.5933
" />
<path d="M198.3866 195.5933
L198.3866 196.5933
" />
<path d="M198.0295 195.0219
L197.6723 196.0933
" />
<path d="M197.6723 196.0933
L198.6009 196.0933
" />
</g></g>
<g style="fill:none; 
stroke:#C872AB; stroke-width:0.1500; stroke-opacity:1; 
stroke-linecap:round; stroke-linejoin:round;">
<path d="M177.0022 191.5072
L285.0022 191.5072
" />
</g>
<g style="fill:none; 
stroke:#C872AB; stroke-width:0.3000; stroke-opacity:1; 
stroke-linecap:round; stroke-linejoin:round;">
<text x="263.0022" y="193.8572"
textLength="6.3857" font-size="2.0000" lengthAdjust="spacingAndGlyphs"
text-anchor="start" opacity="0" stroke-opacity="0">Rev: </text>
<g class="stroked-text"><desc>Rev: </desc>
<path d="M264.4139 193.7855
L263.9139 193.0712
" />
<path d="M263.5567 193.7855
L263.5567 192.2855
" />
<path d="M263.5567 192.2855
L264.1281 192.2855
" />
<path d="M264.1281 192.2855
L264.2710 192.3570
" />
<path d="M264.2710 192.3570
L264.3424 192.4284
" />
<path d="M264.3424 192.4284
L264.4139 192.5712
" />
<path d="M264.4139 192.5712
L264.4139 192.7855
" />
<path d="M264.4139 192.7855
L264.3424 192.9284
" />
<path d="M264.3424 192.9284
L264.2710 192.9998
" />
<path d="M264.2710 192.9998
L264.1281 193.0712
" />
<path d="M264.1281 193.0712
L263.5567 193.0712
" />
<path d="M265.6281 193.7141
L265.4853 193.7855
" />
<path d="M265.4853 193.7855
L265.1996 193.7855
" />
<path d="M265.1996 193.7855
L265.0567 193.7141
" />
<path d="M265.0567 193.7141
L264.9853 193.5712
" />
<path d="M264.9853 193.5712
L264.9853 192.9998
" />
<path d="M264.9853 192.9998
L265.0567 192.8570
" />
<path d="M265.0567 192.8570
L265.1996 192.7855
" />
<path d="M265.1996 192.7855
L265.4853 192.7855
" />
<path d="M265.4853 192.7855
L265.6281 192.8570
" />
<path d="M265.6281 192.8570
L265.6996 192.9998
" />
<path d="M265.6996 192.9998
L265.6996 193.1427
" />
<path d="M265.6996 193.1427
L264.9853 193.2855
" />
<path d="M266.1996 192.7855
L266.5567 193.7855
" />
<path d="M266.5567 193.7855
L266.9139 192.7855
" />
<path d="M267.4853 193.6427
L267.5567 193.7141
" />
<path d="M267.5567 193.7141
L267.4853 193.7855
" />
<path d="M267.4853 193.7855
L267.4139 193.7141
" />
<path d="M267.4139 193.7141
L267.4853 193.6427
" />
<path d="M267.4853 193.6427
L267.4853 193.7855
" />
<path d="M267.4853 192.8570
L267.5567 192.9284
" />
<path d="M267.5567 192.9284
L267.4853 192.9998
" />
<path d="M267.4853 192.9998
L267.4139 192.9284
" />
<path d="M267.4139 192.9284
L267.4853 192.8570
" />
<path d="M267.4853 192.8570
L267.4853 192.9998
" />
</g></g>
<g style="fill:none; 
stroke:#C872AB; stroke-width:0.1500; stroke-opacity:1; 
stroke-linecap:round; stroke-linejoin:round;">
<text x="178.0022" y="193.8572"
textLength="9.3643" font-size="2.0000" lengthAdjust="spacingAndGlyphs"
text-anchor="start" opacity="0" stroke-opacity="0">Size: A4</text>
<g class="stroked-text"><desc>Size: A4</desc>
<path d="M178.3866 193.7219
L178.6009 193.7933
" />
<path d="M178.6009 193.7933
L178.9580 193.7933
" />
<path d="M178.9580 193.7933
L179.1009 193.7219
" />
<path d="M179.1009 193.7219
L179.1723 193.6505
" />
<path d="M179.1723 193.6505
L179.2437 193.5076
" />
<path d="M179.2437 193.5076
L179.2437 193.3648
" />
<path d="M179.2437 193.3648
L179.1723 193.2219
" />
<path d="M179.1723 193.2219
L179.1009 193.1505
" />
<path d="M179.1009 193.1505
L178.9580 193.0790
" />
<path d="M178.9580 193.0790
L178.6723 193.0076
" />
<path d="M178.6723 193.0076
L178.5295 192.9362
" />
<path d="M178.5295 192.9362
L178.4580 192.8648
" />
<path d="M178.4580 192.8648
L178.3866 192.7219
" />
<path d="M178.3866 192.7219
L178.3866 192.5790
" />
<path d="M178.3866 192.5790
L178.4580 192.4362
" />
<path d="M178.4580 192.4362
L178.5295 192.3648
" />
<path d="M178.5295 192.3648
L178.6723 192.2933
" />
<path d="M178.6723 192.2933
L179.0295 192.2933
" />
<path d="M179.0295 192.2933
L179.2437 192.3648
" />
<path d="M179.8866 193.7933
L179.8866 192.7933
" />
<path d="M179.8866 192.2933
L179.8152 192.3648
" />
<path d="M179.8152 192.3648
L179.8866 192.4362
" />
<path d="M179.8866 192.4362
L179.9580 192.3648
" />
<path d="M179.9580 192.3648
L179.8866 192.2933
" />
<path d="M179.8866 192.2933
L179.8866 192.4362
" />
<path d="M180.4580 192.7933
L181.2437 192.7933
" />
<path d="M181.2437 192.7933
L180.4580 193.7933
" />
<path d="M180.4580 193.7933
L181.2437 193.7933
" />
<path d="M182.3866 193.7219
L182.2437 193.7933
" />
<path d="M182.2437 193.7933
L181.9580 193.7933
" />
<path d="M181.9580 193.7933
L181.8152 193.7219
" />
<path d="M181.8152 193.7219
L181.7437 193.5790
" />
<path d="M181.7437 193.5790
L181.7437 193.0076
" />
<path d="M181.7437 193.0076
L181.8152 192.8648
" />
<path d="M181.8152 192.8648
L181.9580 192.7933
" />
<path d="M181.9580 192.7933
L182.2437 192.7933
" />
<path d="M182.2437 192.7933
L182.3866 192.8648
" />
<path d="M182.3866 192.8648
L182.4580 193.0076
" />
<path d="M182.4580 193.0076
L182.4580 193.1505
" />
<path d="M182.4580 193.1505
L181.7437 193.2933
" />
<path d="M183.1009 193.6505
L183.1723 193.7219
" />
<path d="M183.1723 193.7219
L183.1009 193.7933
" />
<path d="M183.1009 193.7933
L183.0295 193.7219
" />
<path d="M183.0295 193.7219
L183.1009 193.6505
" />
<path d="M183.1009 193.6505
L183.1009 193.7933
" />
<path d="M183.1009 192.8648
L183.1723 192.9362
" />
<path d="M183.1723 192.9362
L183.1009 193.0076
" />
<path d="M183.1009 193.0076
L183.0295 192.9362
" />
<path d="M183.0295 192.9362
L183.1009 192.8648
" />
<path d="M183.1009 192.8648
L183.1009 193.0076
" />
<path d="M184.8866 193.3648
L185.6009 193.3648
" />
<path d="M184.7437 193.7933
L185.2437 192.2933
" />
<path d="M185.2437 192.2933
L185.7437 193.7933
" />
<path d="M186.8866 192.7933
L186.8866 193.7933
" />
<path d="M186.5295 192.2219
L186.1723 193.2933
" />
<path d="M186.1723 193.2933
L187.1009 193.2933
" />
</g></g>
<g style="fill:none; 
stroke:#C872AB; stroke-width:0.1500; stroke-opacity:1; 
stroke-linecap:round; stroke-linejoin:round;">
<text x="263.0022" y="196.6572"
textLength="9.9357" font-size="2.0000" lengthAdjust="spacingAndGlyphs"
text-anchor="start" opacity="0" stroke-opacity="0">Id: 8/12</text>
<g class="stroked-text"><desc>Id: 8/12</desc>
<path d="M263.4580 196.5933
L263.4580 195.0933
" />
<path d="M264.8152 196.5933
L264.8152 195.0933
" />
<path d="M264.8152 196.5219
L264.6723 196.5933
" />
<path d="M264.6723 196.5933
L264.3866 196.5933
" />
<path d="M264.3866 196.5933
L264.2437 196.5219
" />
<path d="M264.2437 196.5219
L264.1723 196.4505
" />
<path d="M264.1723 196.4505
L264.1009 196.3076
" />
<path d="M264.1009 196.3076
L264.1009 195.8790
" />
<path d="M264.1009 195.8790
L264.1723 195.7362
" />
<path d="M264.1723 195.7362
L264.2437 195.6648
" />
<path d="M264.2437 195.6648
L264.3866 195.5933
" />
<path d="M264.3866 195.5933
L264.6723 195.5933
" />
<path d="M264.6723 195.5933
L264.8152 195.6648
" />
<path d="M265.5295 196.4505
L265.6009 196.5219
" />
<path d="M265.6009 196.5219
L265.5295 196.5933
" />
<path d="M265.5295 196.5933
L265.4580 196.5219
" />
<path d="M265.4580 196.5219
L265.5295 196.4505
" />
<path d="M265.5295 196.4505
L265.5295 196.5933
" />
<path d="M265.5295 195.6648
L265.6009 195.7362
" />
<path d="M265.6009 195.7362
L265.5295 195.8076
" />
<path d="M265.5295 195.8076
L265.4580 195.7362
" />
<path d="M265.4580 195.7362
L265.5295 195.6648
" />
<path d="M265.5295 195.6648
L265.5295 195.8076
" />
<path d="M267.6009 195.7362
L267.4580 195.6648
" />
<path d="M267.4580 195.6648
L267.3866 195.5933
" />
<path d="M267.3866 195.5933
L267.3152 195.4505
" />
<path d="M267.3152 195.4505
L267.3152 195.3790
" />
<path d="M267.3152 195.3790
L267.3866 195.2362
" />
<path d="M267.3866 195.2362
L267.4580 195.1648
" />
<path d="M267.4580 195.1648
L267.6009 195.0933
" />
<path d="M267.6009 195.0933
L267.8866 195.0933
" />
<path d="M267.8866 195.0933
L268.0295 195.1648
" />
<path d="M268.0295 195.1648
L268.1009 195.2362
" />
<path d="M268.1009 195.2362
L268.1723 195.3790
" />
<path d="M268.1723 195.3790
L268.1723 195.4505
" />
<path d="M268.1723 195.4505
L268.1009 195.5933
" />
<path d="M268.1009 195.5933
L268.0295 195.6648
" />
<path d="M268.0295 195.6648
L267.8866 195.7362
" />
<path d="M267.8866 195.7362
L267.6009 195.7362
" />
<path d="M267.6009 195.7362
L267.4580 195.8076
" />
<path d="M267.4580 195.8076
L267.3866 195.8790
" />
<path d="M267.3866 195.8790
L267.3152 196.0219
" />
<path d="M267.3152 196.0219
L267.3152 196.3076
" />
<path d="M267.3152 196.3076
L267.3866 196.4505
" />
<path d="M267.3866 196.4505
L267.4580 196.5219
" />
<path d="M267.4580 196.5219
L267.6009 196.5933
" />
<path d="M267.6009 196.5933
L267.8866 196.5933
" />
<path d="M267.8866 196.5933
L268.0295 196.5219
" />
<path d="M268.0295 196.5219
L268.1009 196.4505
" />
<path d="M268.1009 196.4505
L268.1723 196.3076
" />
<path d="M268.1723 196.3076
L268.1723 196.0219
" />
<path d="M268.1723 196.0219
L268.1009 195.8790
" />
<path d="M268.1009 195.8790
L268.0295 195.8076
" />
<path d="M268.0295 195.8076
L267.8866 195.7362
" />
<path d="M269.8866 195.0219
L268.6009 196.9505
" />
<path d="M271.1723 196.5933
L270.3152 196.5933
" />
<path d="M270.7437 196.5933
L270.7437 195.0933
" />
<path d="M270.7437 195.0933
L270.6009 195.3076
" />
<path d="M270.6009 195.3076
L270.4580 195.4505
" />
<path d="M270.4580 195.4505
L270.3152 195.5219
" />
<path d="M271.7437 195.2362
L271.8152 195.1648
" />
<path d="M271.8152 195.1648
L271.9580 195.0933
" />
<path d="M271.9580 195.0933
L272.3152 195.0933
" />
<path d="M272.3152 195.0933
L272.4580 195.1648
" />
<path d="M272.4580 195.1648
L272.5295 195.2362
" />
<path d="M272.5295 195.2362
L272.6009 195.3790
" />
<path d="M272.6009 195.3790
L272.6009 195.5219
" />
<path d="M272.6009 195.5219
L272.5295 195.7362
" />
<path d="M272.5295 195.7362
L271.6723 196.5933
" />
<path d="M271.6723 196.5933
L272.6009 196.5933
" />
</g></g>
<g style="fill:none; 
stroke:#C872AB; stroke-width:0.1500; stroke-opacity:1; 
stroke-linecap:round; stroke-linejoin:round;">
<path d="M177.0022 187.5072
L285.0022 187.5072
" />
</g>
<g style="fill:none; 
stroke:#C872AB; stroke-width:0.4000; stroke-opacity:1; 
stroke-linecap:round; stroke-linejoin:round;">
<text x="178.0022" y="190.3072"
textLength="9.6571" font-size="2.6667" lengthAdjust="spacingAndGlyphs"
text-anchor="start" opacity="0" stroke-opacity="0">Title: </text>
<g class="stroked-text"><desc>Title: </desc>
<path d="M178.6939 188.2116
L179.8368 188.2116
" />
<path d="M179.0154 190.2116
L179.2654 188.2116
" />
<path d="M180.2535 190.2116
L180.4201 188.8783
" />
<path d="M180.5035 188.2116
L180.3963 188.3069
" />
<path d="M180.3963 188.3069
L180.4796 188.4021
" />
<path d="M180.4796 188.4021
L180.5868 188.3069
" />
<path d="M180.5868 188.3069
L180.5035 188.2116
" />
<path d="M180.5035 188.2116
L180.4796 188.4021
" />
<path d="M181.0868 188.8783
L181.8487 188.8783
" />
<path d="M181.4558 188.2116
L181.2415 189.9259
" />
<path d="M181.2415 189.9259
L181.3130 190.1164
" />
<path d="M181.3130 190.1164
L181.4915 190.2116
" />
<path d="M181.4915 190.2116
L181.6820 190.2116
" />
<path d="M182.6344 190.2116
L182.4558 190.1164
" />
<path d="M182.4558 190.1164
L182.3844 189.9259
" />
<path d="M182.3844 189.9259
L182.5987 188.2116
" />
<path d="M184.1701 190.1164
L183.9677 190.2116
" />
<path d="M183.9677 190.2116
L183.5868 190.2116
" />
<path d="M183.5868 190.2116
L183.4082 190.1164
" />
<path d="M183.4082 190.1164
L183.3368 189.9259
" />
<path d="M183.3368 189.9259
L183.4320 189.1640
" />
<path d="M183.4320 189.1640
L183.5511 188.9735
" />
<path d="M183.5511 188.9735
L183.7535 188.8783
" />
<path d="M183.7535 188.8783
L184.1344 188.8783
" />
<path d="M184.1344 188.8783
L184.3130 188.9735
" />
<path d="M184.3130 188.9735
L184.3844 189.1640
" />
<path d="M184.3844 189.1640
L184.3606 189.3545
" />
<path d="M184.3606 189.3545
L183.3844 189.5450
" />
<path d="M185.1344 190.0212
L185.2177 190.1164
" />
<path d="M185.2177 190.1164
L185.1106 190.2116
" />
<path d="M185.1106 190.2116
L185.0273 190.1164
" />
<path d="M185.0273 190.1164
L185.1344 190.0212
" />
<path d="M185.1344 190.0212
L185.1106 190.2116
" />
<path d="M185.2654 188.9735
L185.3487 189.0688
" />
<path d="M185.3487 189.0688
L185.2415 189.1640
" />
<path d="M185.2415 189.1640
L185.1582 189.0688
" />
<path d="M185.1582 189.0688
L185.2654 188.9735
" />
<path d="M185.2654 188.9735
L185.2415 189.1640
" />
</g></g>
<g style="fill:none; 
stroke:#C872AB; stroke-width:0.1500; stroke-opacity:1; 
stroke-linecap:round; stroke-linejoin:round;">
<text x="178.0022" y="186.4572"
textLength="23.3643" font-size="2.0000" lengthAdjust="spacingAndGlyphs"
text-anchor="start" opacity="0" stroke-opacity="0">File: x180.kicad_pcb</text>
<g class="stroked-text"><desc>File: x180.kicad_pcb</desc>
<path d="M178.9580 185.6076
L178.4580 185.6076
" />
<path d="M178.4580 186.3933
L178.4580 184.8933
" />
<path d="M178.4580 184.8933
L179.1723 184.8933
" />
<path d="M179.7437 186.3933
L179.7437 185.3933
" />
<path d="M179.7437 184.8933
L179.6723 184.9648
" />
<path d="M179.6723 184.9648
L179.7437 185.0362
" />
<path d="M179.7437 185.0362
L179.8152 184.9648
" />
<path d="M179.8152 184.9648
L179.7437 184.8933
" />
<path d="M179.7437 184.8933
L179.7437 185.0362
" />
<path d="M180.6723 186.3933
L180.5295 186.3219
" />
<path d="M180.5295 186.3219
L180.4580 186.1790
" />
<path d="M180.4580 186.1790
L180.4580 184.8933
" />
<path d="M181.8152 186.3219
L181.6723 186.3933
" />
<path d="M181.6723 186.3933
L181.3866 186.3933
" />
<path d="M181.3866 186.3933
L181.2437 186.3219
" />
<path d="M181.2437 186.3219
L181.1723 186.1790
" />
<path d="M181.1723 186.1790
L181.1723 185.6076
" />
<path d="M181.1723 185.6076
L181.2437 185.4648
" />
<path d="M181.2437 185.4648
L181.3866 185.3933
" />
<path d="M181.3866 185.3933
L181.6723 185.3933
" />
<path d="M181.6723 185.3933
L181.8152 185.4648
" />
<path d="M181.8152 185.4648
L181.8866 185.6076
" />
<path d="M181.8866 185.6076
L181.8866 185.7505
" />
<path d="M181.8866 185.7505
L181.1723 185.8933
" />
<path d="M182.5295 186.2505
L182.6009 186.3219
" />
<path d="M182.6009 186.3219
L182.5295 186.3933
" />
<path d="M182.5295 186.3933
L182.4580 186.3219
" />
<path d="M182.4580 186.3219
L182.5295 186.2505
" />
<path d="M182.5295 186.2505
L182.5295 186.3933
" />
<path d="M182.5295 185.4648
L182.6009 185.5362
" />
<path d="M182.6009 185.5362
L182.5295 185.6076
" />
<path d="M182.5295 185.6076
L182.4580 185.5362
" />
<path d="M182.4580 185.5362
L182.5295 185.4648
" />
<path d="M182.5295 185.4648
L182.5295 185.6076
" />
<path d="M184.2437 186.3933
L185.0295 185.3933
" />
<path d="M184.2437 185.3933
L185.0295 186.3933
" />
<path d="M186.3866 186.3933
L185.5295 186.3933
" />
<path d="M185.9580 186.3933
L185.9580 184.8933
" />
<path d="M185.9580 184.8933
L185.8152 185.1076
" />
<path d="M185.8152 185.1076
L185.6723 185.2505
" />
<path d="M185.6723 185.2505
L185.5295 185.3219
" />
<path d="M187.2437 185.5362
L187.1009 185.4648
" />
<path d="M187.1009 185.4648
L187.0295 185.3933
" />
<path d="M187.0295 185.3933
L186.9580 185.2505
" />
<path d="M186.9580 185.2505
L186.9580 185.1790
" />
<path d="M186.9580 185.1790
L187.0295 185.0362
" />
<path d="M187.0295 185.0362
L187.1009 184.9648
" />
<path d="M187.1009 184.9648
L187.2437 184.8933
" />
<path d="M187.2437 184.8933
L187.5295 184.8933
" />
<path d="M187.5295 184.8933
L187.6723 184.9648
" />
<path d="M187.6723 184.9648
L187.7437 185.0362
" />
<path d="M187.7437 185.0362
L187.8152 185.1790
" />
<path d="M187.8152 185.1790
L187.8152 185.2505
" />
<path d="M187.8152 185.2505
L187.7437 185.3933
" />
<path d="M187.7437 185.3933
L187.6723 185.4648
" />
<path d="M187.6723 185.4648
L187.5295 185.5362
" />
<path d="M187.5295 185.5362
L187.2437 185.5362
" />
<path d="M187.2437 185.5362
L187.1009 185.6076
" />
<path d="M187.1009 185.6076
L187.0295 185.6790
" />
<path d="M187.0295 185.6790
L186.9580 185.8219
" />
<path d="M186.9580 185.8219
L186.9580 186.1076
" />
<path d="M186.9580 186.1076
L187.0295 186.2505
" />
<path d="M187.0295 186.2505
L187.1009 186.3219
" />
<path d="M187.1009 186.3219
L187.2437 186.3933
" />
<path d="M187.2437 186.3933
L187.5295 186.3933
" />
<path d="M187.5295 186.3933
L187.6723 186.3219
" />
<path d="M187.6723 186.3219
L187.7437 186.2505
" />
<path d="M187.7437 186.2505
L187.8152 186.1076
" />
<path d="M187.8152 186.1076
L187.8152 185.8219
" />
<path d="M187.8152 185.8219
L187.7437 185.6790
" />
<path d="M187.7437 185.6790
L187.6723 185.6076
" />
<path d="M187.6723 185.6076
L187.5295 185.5362
" />
<path d="M188.7437 184.8933
L188.8866 184.8933
" />
<path d="M188.8866 184.8933
L189.0295 184.9648
" />
<path d="M189.0295 184.9648
L189.1009 185.0362
" />
<path d="M189.1009 185.0362
L189.1723 185.1790
" />
<path d="M189.1723 185.1790
L189.2437 185.4648
" />
<path d="M189.2437 185.4648
L189.2437 185.8219
" />
<path d="M189.2437 185.8219
L189.1723 186.1076
" />
<path d="M189.1723 186.1076
L189.1009 186.2505
" />
<path d="M189.1009 186.2505
L189.0295 186.3219
" />
<path d="M189.0295 186.3219
L188.8866 186.3933
" />
<path d="M188.8866 186.3933
L188.7437 186.3933
" />
<path d="M188.7437 186.3933
L188.6009 186.3219
" />
<path d="M188.6009 186.3219
L188.5295 186.2505
" />
<path d="M188.5295 186.2505
L188.4580 186.1076
" />
<path d="M188.4580 186.1076
L188.3866 185.8219
" />
<path d="M188.3866 185.8219
L188.3866 185.4648
" />
<path d="M188.3866 185.4648
L188.4580 185.1790
" />
<path d="M188.4580 185.1790
L188.5295 185.0362
" />
<path d="M188.5295 185.0362
L188.6009 184.9648
" />
<path d="M188.6009 184.9648
L188.7437 184.8933
" />
<path d="M189.8866 186.2505
L189.9580 186.3219
" />
<path d="M189.9580 186.3219
L189.8866 186.3933
" />
<path d="M189.8866 186.3933
L189.8152 186.3219
" />
<path d="M189.8152 186.3219
L189.8866 186.2505
" />
<path d="M189.8866 186.2505
L189.8866 186.3933
" />
<path d="M190.6009 186.3933
L190.6009 184.8933
" />
<path d="M190.7437 185.8219
L191.1723 186.3933
" />
<path d="M191.1723 185.3933
L190.6009 185.9648
" />
<path d="M191.8152 186.3933
L191.8152 185.3933
" />
<path d="M191.8152 184.8933
L191.7437 184.9648
" />
<path d="M191.7437 184.9648
L191.8152 185.0362
" />
<path d="M191.8152 185.0362
L191.8866 184.9648
" />
<path d="M191.8866 184.9648
L191.8152 184.8933
" />
<path d="M191.8152 184.8933
L191.8152 185.0362
" />
<path d="M193.1723 186.3219
L193.0295 186.3933
" />
<path d="M193.0295 186.3933
L192.7437 186.3933
" />
<path d="M192.7437 186.3933
L192.6009 186.3219
" />
<path d="M192.6009 186.3219
L192.5295 186.2505
" />
<path d="M192.5295 186.2505
L192.4580 186.1076
" />
<path d="M192.4580 186.1076
L192.4580 185.6790
" />
<path d="M192.4580 185.6790
L192.5295 185.5362
" />
<path d="M192.5295 185.5362
L192.6009 185.4648
" />
<path d="M192.6009 185.4648
L192.7437 185.3933
" />
<path d="M192.7437 185.3933
L193.0295 185.3933
" />
<path d="M193.0295 185.3933
L193.1723 185.4648
" />
<path d="M194.4580 186.3933
L194.4580 185.6076
" />
<path d="M194.4580 185.6076
L194.3866 185.4648
" />
<path d="M194.3866 185.4648
L194.2437 185.3933
" />
<path d="M194.2437 185.3933
L193.9580 185.3933
" />
<path d="M193.9580 185.3933
L193.8152 185.4648
" />
<path d="M194.4580 186.3219
L194.3152 186.3933
" />
<path d="M194.3152 186.3933
L193.9580 186.3933
" />
<path d="M193.9580 186.3933
L193.8152 186.3219
" />
<path d="M193.8152 186.3219
L193.7437 186.1790
" />
<path d="M193.7437 186.1790
L193.7437 186.0362
" />
<path d="M193.7437 186.0362
L193.8152 185.8933
" />
<path d="M193.8152 185.8933
L193.9580 185.8219
" />
<path d="M193.9580 185.8219
L194.3152 185.8219
" />
<path d="M194.3152 185.8219
L194.4580 185.7505
" />
<path d="M195.8152 186.3933
L195.8152 184.8933
" />
<path d="M195.8152 186.3219
L195.6723 186.3933
" />
<path d="M195.6723 186.3933
L195.3866 186.3933
" />
<path d="M195.3866 186.3933
L195.2437 186.3219
" />
<path d="M195.2437 186.3219
L195.1723 186.2505
" />
<path d="M195.1723 186.2505
L195.1009 186.1076
" />
<path d="M195.1009 186.1076
L195.1009 185.6790
" />
<path d="M195.1009 185.6790
L195.1723 185.5362
" />
<path d="M195.1723 185.5362
L195.2437 185.4648
" />
<path d="M195.2437 185.4648
L195.3866 185.3933
" />
<path d="M195.3866 185.3933
L195.6723 185.3933
" />
<path d="M195.6723 185.3933
L195.8152 185.4648
" />
<path d="M196.1723 186.5362
L197.3152 186.5362
" />
<path d="M197.6723 185.3933
L197.6723 186.8933
" />
<path d="M197.6723 185.4648
L197.8152 185.3933
" />
<path d="M197.8152 185.3933
L198.1009 185.3933
" />
<path d="M198.1009 185.3933
L198.2437 185.4648
" />
<path d="M198.2437 185.4648
L198.3152 185.5362
" />
<path d="M198.3152 185.5362
L198.3866 185.6790
" />
<path d="M198.3866 185.6790
L198.3866 186.1076
" />
<path d="M198.3866 186.1076
L198.3152 186.2505
" />
<path d="M198.3152 186.2505
L198.2437 186.3219
" />
<path d="M198.2437 186.3219
L198.1009 186.3933
" />
<path d="M198.1009 186.3933
L197.8152 186.3933
" />
<path d="M197.8152 186.3933
L197.6723 186.3219
" />
<path d="M199.6723 186.3219
L199.5295 186.3933
" />
<path d="M199.5295 186.3933
L199.2437 186.3933
" />
<path d="M199.2437 186.3933
L199.1009 186.3219
" />
<path d="M199.1009 186.3219
L199.0295 186.2505
" />
<path d="M199.0295 186.2505
L198.9580 186.1076
" />
<path d="M198.9580 186.1076
L198.9580 185.6790
" />
<path d="M198.9580 185.6790
L199.0295 185.5362
" />
<path d="M199.0295 185.5362
L199.1009 185.4648
" />
<path d="M199.1009 185.4648
L199.2437 185.3933
" />
<path d="M199.2437 185.3933
L199.5295 185.3933
" />
<path d="M199.5295 185.3933
L199.6723 185.4648
" />
<path d="M200.3152 186.3933
L200.3152 184.8933
" />
<path d="M200.3152 185.4648
L200.4580 185.3933
" />
<path d="M200.4580 185.3933
L200.7437 185.3933
" />
<path d="M200.7437 185.3933
L200.8866 185.4648
" />
<path d="M200.8866 185.4648
L200.9580 185.5362
" />
<path d="M200.9580 185.5362
L201.0295 185.6790
" />
<path d="M201.0295 185.6790
L201.0295 186.1076
" />
<path d="M201.0295 186.1076
L200.9580 186.2505
" />
<path d="M200.9580 186.2505
L200.8866 186.3219
" />
<path d="M200.8866 186.3219
L200.7437 186.3933
" />
<path d="M200.7437 186.3933
L200.4580 186.3933
" />
<path d="M200.4580 186.3933
L200.3152 186.3219
" />
</g></g>
<g style="fill:none; 
stroke:#C872AB; stroke-width:0.1500; stroke-opacity:1; 
stroke-linecap:round; stroke-linejoin:round;">
<path d="M177.0022 181.5072
L285.0022 181.5072
" />
</g>
<g style="fill:none; 
stroke:#C872AB; stroke-width:0.1500; stroke-opacity:1; 
stroke-linecap:round; stroke-linejoin:round;">
<text x="178.0022" y="183.7572"
textLength="8.2214" font-size="2.0000" lengthAdjust="spacingAndGlyphs"
text-anchor="start" opacity="0" stroke-opacity="0">Sheet: </text>
<g class="stroked-text"><desc>Sheet: </desc>
<path d="M178.3866 183.6219
L178.6009 183.6933
" />
<path d="M178.6009 183.6933
L178.9580 183.6933
" />
<path d="M178.9580 183.6933
L179.1009 183.6219
" />
<path d="M179.1009 183.6219
L179.1723 183.5505
" />
<path d="M179.1723 183.5505
L179.2437 183.4076
" />
<path d="M179.2437 183.4076
L179.2437 183.2648
" />
<path d="M179.2437 183.2648
L179.1723 183.1219
" />
<path d="M179.1723 183.1219
L179.1009 183.0505
" />
<path d="M179.1009 183.0505
L178.9580 182.9790
" />
<path d="M178.9580 182.9790
L178.6723 182.9076
" />
<path d="M178.6723 182.9076
L178.5295 182.8362
" />
<path d="M178.5295 182.8362
L178.4580 182.7648
" />
<path d="M178.4580 182.7648
L178.3866 182.6219
" />
<path d="M178.3866 182.6219
L178.3866 182.4790
" />
<path d="M178.3866 182.4790
L178.4580 182.3362
" />
<path d="M178.4580 182.3362
L178.5295 182.2648
" />
<path d="M178.5295 182.2648
L178.6723 182.1933
" />
<path d="M178.6723 182.1933
L179.0295 182.1933
" />
<path d="M179.0295 182.1933
L179.2437 182.2648
" />
<path d="M179.8866 183.6933
L179.8866 182.1933
" />
<path d="M180.5295 183.6933
L180.5295 182.9076
" />
<path d="M180.5295 182.9076
L180.4580 182.7648
" />
<path d="M180.4580 182.7648
L180.3152 182.6933
" />
<path d="M180.3152 182.6933
L180.1009 182.6933
" />
<path d="M180.1009 182.6933
L179.9580 182.7648
" />
<path d="M179.9580 182.7648
L179.8866 182.8362
" />
<path d="M181.8152 183.6219
L181.6723 183.6933
" />
<path d="M181.6723 183.6933
L181.3866 183.6933
" />
<path d="M181.3866 183.6933
L181.2437 183.6219
" />
<path d="M181.2437 183.6219
L181.1723 183.4790
" />
<path d="M181.1723 183.4790
L181.1723 182.9076
" />
<path d="M181.1723 182.9076
L181.2437 182.7648
" />
<path d="M181.2437 182.7648
L181.3866 182.6933
" />
<path d="M181.3866 182.6933
L181.6723 182.6933
" />
<path d="M181.6723 182.6933
L181.8152 182.7648
" />
<path d="M181.8152 182.7648
L181.8866 182.9076
" />
<path d="M181.8866 182.9076
L181.8866 183.0505
" />
<path d="M181.8866 183.0505
L181.1723 183.1933
" />
<path d="M183.1009 183.6219
L182.9580 183.6933
" />
<path d="M182.9580 183.6933
L182.6723 183.6933
" />
<path d="M182.6723 183.6933
L182.5295 183.6219
" />
<path d="M182.5295 183.6219
L182.4580 183.4790
" />
<path d="M182.4580 183.4790
L182.4580 182.9076
" />
<path d="M182.4580 182.9076
L182.5295 182.7648
" />
<path d="M182.5295 182.7648
L182.6723 182.6933
" />
<path d="M182.6723 182.6933
L182.9580 182.6933
" />
<path d="M182.9580 182.6933
L183.1009 182.7648
" />
<path d="M183.1009 182.7648
L183.1723 182.9076
" />
<path d="M183.1723 182.9076
L183.1723 183.0505
" />
<path d="M183.1723 183.0505
L182.4580 183.1933
" />
<path d="M183.6009 182.6933
L184.1723 182.6933
" />
<path d="M183.8152 182.1933
L183.8152 183.4790
" />
<path d="M183.8152 183.4790
L183.8866 183.6219
" />
<path d="M183.8866 183.6219
L184.0295 183.6933
" />
<path d="M184.0295 183.6933
L184.1723 183.6933
" />
<path d="M184.6723 183.5505
L184.7437 183.6219
" />
<path d="M184.7437 183.6219
L184.6723 183.6933
" />
<path d="M184.6723 183.6933
L184.6009 183.6219
" />
<path d="M184.6009 183.6219
L184.6723 183.5505
" />
<path d="M184.6723 183.5505
L184.6723 183.6933
" />
<path d="M184.6723 182.7648
L184.7437 182.8362
" />
<path d="M184.7437 182.8362
L184.6723 182.9076
" />
<path d="M184.6723 182.9076
L184.6009 182.8362
" />
<path d="M184.6009 182.8362
L184.6723 182.7648
" />
<path d="M184.6723 182.7648
L184.6723 182.9076
" />
</g></g>
<g style="fill:none; 
stroke:#C872AB; stroke-width:0.3000; stroke-opacity:1; 
stroke-linecap:round; stroke-linejoin:round;">
<text x="178.0022" y="180.7572"
textLength="0.9000" font-size="2.0000" lengthAdjust="spacingAndGlyphs"
text-anchor="start" opacity="0" stroke-opacity="0"></text>
<g class="stroked-text"><desc></desc>
</g></g>
<g style="fill:none; 
stroke:#C872AB; stroke-width:0.1500; stroke-opacity:1; 
stroke-linecap:round; stroke-linejoin:round;">
<text x="178.0022" y="177.7572"
textLength="0.4500" font-size="2.0000" lengthAdjust="spacingAndGlyphs"
text-anchor="start" opacity="0" stroke-opacity="0"></text>
<g class="stroked-text"><desc></desc>
</g></g>
<g style="fill:none; 
stroke:#C872AB; stroke-width:0.1500; stroke-opacity:1; 
stroke-linecap:round; stroke-linejoin:round;">
<text x="178.0022" y="174.7572"
textLength="0.4500" font-size="2.0000" lengthAdjust="spacingAndGlyphs"
text-anchor="start" opacity="0" stroke-opacity="0"></text>
<g class="stroked-text"><desc></desc>
</g></g>
<g style="fill:none; 
stroke:#C872AB; stroke-width:0.1500; stroke-opacity:1; 
stroke-linecap:round; stroke-linejoin:round;">
<text x="178.0022" y="171.7572"
textLength="0.4500" font-size="2.0000" lengthAdjust="spacingAndGlyphs"
text-anchor="start" opacity="0" stroke-opacity="0"></text>
<g class="stroked-text"><desc></desc>
</g></g>
<g style="fill:none; 
stroke:#C872AB; stroke-width:0.1500; stroke-opacity:1; 
stroke-linecap:round; stroke-linejoin:round;">
<text x="178.0022" y="168.7572"
textLength="0.4500" font-size="2.0000" lengthAdjust="spacingAndGlyphs"
text-anchor="start" opacity="0" stroke-opacity="0"></text>
<g class="stroked-text"><desc></desc>
</g></g>
<g style="fill:none; 
stroke:#C872AB; stroke-width:0.1500; stroke-opacity:1; 
stroke-linecap:round; stroke-linejoin:round;">
<path d="M197.0022 191.5072
L197.0022 194.5072
" />
</g>
<g style="fill:none; 
stroke:#C872AB; stroke-width:0.1500; stroke-opacity:1; 
stroke-linecap:round; stroke-linejoin:round;">
<path d="M261.0022 191.5072
L261.0022 198.0072
" />
<path style="fill:#00C2C2; fill-opacity:0.9000; stroke:none;fill-rule:evenodd;"
d="M 79.4824,51.2278
79.4653,51.3139
79.4165,51.3869
79.3435,51.4357
79.2574,51.4528
78.8074,51.4528
78.7213,51.4357
78.6483,51.3869
78.5995,51.3139
78.5824,51.2278
78.5824,50.7278
78.5995,50.6417
78.6483,50.5687
78.7213,50.5199
78.8074,50.5028
79.2574,50.5028
79.3435,50.5199
79.4165,50.5687
79.4653,50.6417
79.4824,50.7278
Z" /> 
<path style="fill:#00C2C2; fill-opacity:0.9000; stroke:none;fill-rule:evenodd;"
d="M 77.9324,51.2278
77.9153,51.3139
77.8665,51.3869
77.7935,51.4357
77.7074,51.4528
77.2574,51.4528
77.1713,51.4357
77.0983,51.3869
77.0495,51.3139
77.0324,51.2278
77.0324,50.7278
77.0495,50.6417
77.0983,50.5687
77.1713,50.5199
77.2574,50.5028
77.7074,50.5028
77.7935,50.5199
77.8665,50.5687
77.9153,50.6417
77.9324,50.7278
Z" /> 
<path style="fill:#00C2C2; fill-opacity:0.9000; stroke:none;fill-rule:evenodd;"
d="M 77.2610,66.2980
77.2781,66.2119
77.3269,66.1389
77.3999,66.0901
77.4860,66.0730
77.9360,66.0730
78.0221,66.0901
78.0951,66.1389
78.1439,66.2119
78.1610,66.2980
78.1610,66.7980
78.1439,66.8841
78.0951,66.9571
78.0221,67.0059
77.9360,67.0230
77.4860,67.0230
77.3999,67.0059
77.3269,66.9571
77.2781,66.8841
77.2610,66.7980
Z" /> 
<path style="fill:#00C2C2; fill-opacity:0.9000; stroke:none;fill-rule:evenodd;"
d="M 78.8110,66.2980
78.8281,66.2119
78.8769,66.1389
78.9499,66.0901
79.0360,66.0730
79.4860,66.0730
79.5721,66.0901
79.6451,66.1389
79.6939,66.2119
79.7110,66.2980
79.7110,66.7980
79.6939,66.8841
79.6451,66.9571
79.5721,67.0059
79.4860,67.0230
79.0360,67.0230
78.9499,67.0059
78.8769,66.9571
78.8281,66.8841
78.8110,66.7980
Z" /> 
<path style="fill:#00C2C2; fill-opacity:0.9000; stroke:none;fill-rule:evenodd;"
d="M 86.3640,60.1530
86.2779,60.1359
86.2049,60.0871
86.1561,60.0141
86.1390,59.9280
86.1390,59.4780
86.1561,59.3919
86.2049,59.3189
86.2779,59.2701
86.3640,59.2530
86.8640,59.2530
86.9501,59.2701
87.0231,59.3189
87.0719,59.3919
87.0890,59.4780
87.0890,59.9280
87.0719,60.0141
87.0231,60.0871
86.9501,60.1359
86.8640,60.1530
Z" /> 
<path style="fill:#00C2C2; fill-opacity:0.9000; stroke:none;fill-rule:evenodd;"
d="M 86.3640,58.6030
86.2779,58.5859
86.2049,58.5371
86.1561,58.4641
86.1390,58.3780
86.1390,57.9280
86.1561,57.8419
86.2049,57.7689
86.2779,57.7201
86.3640,57.7030
86.8640,57.7030
86.9501,57.7201
87.0231,57.7689
87.0719,57.8419
87.0890,57.9280
87.0890,58.3780
87.0719,58.4641
87.0231,58.5371
86.9501,58.5859
86.8640,58.6030
Z" /> 
<path style="fill:#00C2C2; fill-opacity:0.9000; stroke:none;fill-rule:evenodd;"
d="M 83.3198,65.5050
82.7698,65.5050
82.7698,64.0050
83.3198,64.0050
Z" /> 
<path style="fill:#00C2C2; fill-opacity:0.9000; stroke:none;fill-rule:evenodd;"
d="M 82.5198,65.5050
81.9698,65.5050
81.9698,64.0050
82.5198,64.0050
Z" /> 
<path style="fill:#00C2C2; fill-opacity:0.9000; stroke:none;fill-rule:evenodd;"
d="M 81.7198,65.5050
81.1698,65.5050
81.1698,64.0050
81.7198,64.0050
Z" /> 
<path style="fill:#00C2C2; fill-opacity:0.9000; stroke:none;fill-rule:evenodd;"
d="M 80.9198,65.5050
80.3698,65.5050
80.3698,64.0050
80.9198,64.0050
Z" /> 
<path style="fill:#00C2C2; fill-opacity:0.9000; stroke:none;fill-rule:evenodd;"
d="M 80.1198,65.5050
79.5698,65.5050
79.5698,64.0050
80.1198,64.0050
Z" /> 
<path style="fill:#00C2C2; fill-opacity:0.9000; stroke:none;fill-rule:evenodd;"
d="M 79.3198,65.5050
78.7698,65.5050
78.7698,64.0050
79.3198,64.0050
Z" /> 
<path style="fill:#00C2C2; fill-opacity:0.9000; stroke:none;fill-rule:evenodd;"
d="M 78.5198,65.5050
77.9698,65.5050
77.9698,64.0050
78.5198,64.0050
Z" /> 
<path style="fill:#00C2C2; fill-opacity:0.9000; stroke:none;fill-rule:evenodd;"
d="M 77.7198,65.5050
77.1698,65.5050
77.1698,64.0050
77.7198,64.0050
Z" /> 
<path style="fill:#00C2C2; fill-opacity:0.9000; stroke:none;fill-rule:evenodd;"
d="M 76.9198,65.5050
76.3698,65.5050
76.3698,64.0050
76.9198,64.0050
Z" /> 
<path style="fill:#00C2C2; fill-opacity:0.9000; stroke:none;fill-rule:evenodd;"
d="M 76.1198,65.5050
75.5698,65.5050
75.5698,64.0050
76.1198,64.0050
Z" /> 
<path style="fill:#00C2C2; fill-opacity:0.9000; stroke:none;fill-rule:evenodd;"
d="M 75.3198,65.5050
74.7698,65.5050
74.7698,64.0050
75.3198,64.0050
Z" /> 
<path style="fill:#00C2C2; fill-opacity:0.9000; stroke:none;fill-rule:evenodd;"
d="M 72.5948,63.3300
72.5948,62.7800
74.0948,62.7800
74.0948,63.3300
Z" /> 
<path style="fill:#00C2C2; fill-opacity:0.9000; stroke:none;fill-rule:evenodd;"
d="M 72.5948,62.5300
72.5948,61.9800
74.0948,61.9800
74.0948,62.5300
Z" /> 
<path style="fill:#00C2C2; fill-opacity:0.9000; stroke:none;fill-rule:evenodd;"
d="M 72.5948,61.7300
72.5948,61.1800
74.0948,61.1800
74.0948,61.7300
Z" /> 
<path style="fill:#00C2C2; fill-opacity:0.9000; stroke:none;fill-rule:evenodd;"
d="M 72.5948,60.9300
72.5948,60.3800
74.0948,60.3800
74.0948,60.9300
Z" /> 
<path style="fill:#00C2C2; fill-opacity:0.9000; stroke:none;fill-rule:evenodd;"
d="M 72.5948,60.1300
72.5948,59.5800
74.0948,59.5800
74.0948,60.1300
Z" /> 
<path style="fill:#00C2C2; fill-opacity:0.9000; stroke:none;fill-rule:evenodd;"
d="M 72.5948,59.3300
72.5948,58.7800
74.0948,58.7800
74.0948,59.3300
Z" /> 
<path style="fill:#00C2C2; fill-opacity:0.9000; stroke:none;fill-rule:evenodd;"
d="M 72.5948,58.5300
72.5948,57.9800
74.0948,57.9800
74.0948,58.5300
Z" /> 
<path style="fill:#00C2C2; fill-opacity:0.9000; stroke:none;fill-rule:evenodd;"
d="M 72.5948,57.7300
72.5948,57.1800
74.0948,57.1800
74.0948,57.7300
Z" /> 
<path style="fill:#00C2C2; fill-opacity:0.9000; stroke:none;fill-rule:evenodd;"
d="M 72.5948,56.9300
72.5948,56.3800
74.0948,56.3800
74.0948,56.9300
Z" /> 
<path style="fill:#00C2C2; fill-opacity:0.9000; stroke:none;fill-rule:evenodd;"
d="M 72.5948,56.1300
72.5948,55.5800
74.0948,55.5800
74.0948,56.1300
Z" /> 
<path style="fill:#00C2C2; fill-opacity:0.9000; stroke:none;fill-rule:evenodd;"
d="M 72.5948,55.3300
72.5948,54.7800
74.0948,54.7800
74.0948,55.3300
Z" /> 
<path style="fill:#00C2C2; fill-opacity:0.9000; stroke:none;fill-rule:evenodd;"
d="M 75.3198,54.1050
74.7698,54.1050
74.7698,52.6050
75.3198,52.6050
Z" /> 
<path style="fill:#00C2C2; fill-opacity:0.9000; stroke:none;fill-rule:evenodd;"
d="M 76.1198,54.1050
75.5698,54.1050
75.5698,52.6050
76.1198,52.6050
Z" /> 
<path style="fill:#00C2C2; fill-opacity:0.9000; stroke:none;fill-rule:evenodd;"
d="M 76.9198,54.1050
76.3698,54.1050
76.3698,52.6050
76.9198,52.6050
Z" /> 
<path style="fill:#00C2C2; fill-opacity:0.9000; stroke:none;fill-rule:evenodd;"
d="M 77.7198,54.1050
77.1698,54.1050
77.1698,52.6050
77.7198,52.6050
Z" /> 
<path style="fill:#00C2C2; fill-opacity:0.9000; stroke:none;fill-rule:evenodd;"
d="M 78.5198,54.1050
77.9698,54.1050
77.9698,52.6050
78.5198,52.6050
Z" /> 
<path style="fill:#00C2C2; fill-opacity:0.9000; stroke:none;fill-rule:evenodd;"
d="M 79.3198,54.1050
78.7698,54.1050
78.7698,52.6050
79.3198,52.6050
Z" /> 
<path style="fill:#00C2C2; fill-opacity:0.9000; stroke:none;fill-rule:evenodd;"
d="M 80.1198,54.1050
79.5698,54.1050
79.5698,52.6050
80.1198,52.6050
Z" /> 
<path style="fill:#00C2C2; fill-opacity:0.9000; stroke:none;fill-rule:evenodd;"
d="M 80.9198,54.1050
80.3698,54.1050
80.3698,52.6050
80.9198,52.6050
Z" /> 
<path style="fill:#00C2C2; fill-opacity:0.9000; stroke:none;fill-rule:evenodd;"
d="M 81.7198,54.1050
81.1698,54.1050
81.1698,52.6050
81.7198,52.6050
Z" /> 
<path style="fill:#00C2C2; fill-opacity:0.9000; stroke:none;fill-rule:evenodd;"
d="M 82.5198,54.1050
81.9698,54.1050
81.9698,52.6050
82.5198,52.6050
Z" /> 
<path style="fill:#00C2C2; fill-opacity:0.9000; stroke:none;fill-rule:evenodd;"
d="M 83.3198,54.1050
82.7698,54.1050
82.7698,52.6050
83.3198,52.6050
Z" /> 
<path style="fill:#00C2C2; fill-opacity:0.9000; stroke:none;fill-rule:evenodd;"
d="M 83.9948,55.3300
83.9948,54.7800
85.4948,54.7800
85.4948,55.3300
Z" /> 
<path style="fill:#00C2C2; fill-opacity:0.9000; stroke:none;fill-rule:evenodd;"
d="M 83.9948,56.1300
83.9948,55.5800
85.4948,55.5800
85.4948,56.1300
Z" /> 
<path style="fill:#00C2C2; fill-opacity:0.9000; stroke:none;fill-rule:evenodd;"
d="M 83.9948,56.9300
83.9948,56.3800
85.4948,56.3800
85.4948,56.9300
Z" /> 
<path style="fill:#00C2C2; fill-opacity:0.9000; stroke:none;fill-rule:evenodd;"
d="M 83.9948,57.7300
83.9948,57.1800
85.4948,57.1800
85.4948,57.7300
Z" /> 
<path style="fill:#00C2C2; fill-opacity:0.9000; stroke:none;fill-rule:evenodd;"
d="M 83.9948,58.5300
83.9948,57.9800
85.4948,57.9800
85.4948,58.5300
Z" /> 
<path style="fill:#00C2C2; fill-opacity:0.9000; stroke:none;fill-rule:evenodd;"
d="M 83.9948,59.3300
83.9948,58.7800
85.4948,58.7800
85.4948,59.3300
Z" /> 
<path style="fill:#00C2C2; fill-opacity:0.9000; stroke:none;fill-rule:evenodd;"
d="M 83.9948,60.1300
83.9948,59.5800
85.4948,59.5800
85.4948,60.1300
Z" /> 
<path style="fill:#00C2C2; fill-opacity:0.9000; stroke:none;fill-rule:evenodd;"
d="M 83.9948,60.9300
83.9948,60.3800
85.4948,60.3800
85.4948,60.9300
Z" /> 
<path style="fill:#00C2C2; fill-opacity:0.9000; stroke:none;fill-rule:evenodd;"
d="M 83.9948,61.7300
83.9948,61.1800
85.4948,61.1800
85.4948,61.7300
Z" /> 
<path style="fill:#00C2C2; fill-opacity:0.9000; stroke:none;fill-rule:evenodd;"
d="M 83.9948,62.5300
83.9948,61.9800
85.4948,61.9800
85.4948,62.5300
Z" /> 
<path style="fill:#00C2C2; fill-opacity:0.9000; stroke:none;fill-rule:evenodd;"
d="M 83.9948,63.3300
83.9948,62.7800
85.4948,62.7800
85.4948,63.3300
Z" /> 
<path style="fill:#00C2C2; fill-opacity:0.9000; stroke:none;fill-rule:evenodd;"
d="M 71.8526,58.9476
71.9387,58.9647
72.0117,59.0135
72.0605,59.0865
72.0776,59.1726
72.0776,59.6226
72.0605,59.7087
72.0117,59.7817
71.9387,59.8305
71.8526,59.8476
71.3526,59.8476
71.2665,59.8305
71.1935,59.7817
71.1447,59.7087
71.1276,59.6226
71.1276,59.1726
71.1447,59.0865
71.1935,59.0135
71.2665,58.9647
71.3526,58.9476
Z" /> 
<path style="fill:#00C2C2; fill-opacity:0.9000; stroke:none;fill-rule:evenodd;"
d="M 71.8526,60.4976
71.9387,60.5147
72.0117,60.5635
72.0605,60.6365
72.0776,60.7226
72.0776,61.1726
72.0605,61.2587
72.0117,61.3317
71.9387,61.3805
71.8526,61.3976
71.3526,61.3976
71.2665,61.3805
71.1935,61.3317
71.1447,61.2587
71.1276,61.1726
71.1276,60.7226
71.1447,60.6365
71.1935,60.5635
71.2665,60.5147
71.3526,60.4976
Z" /> 
</g>
<g style="fill:none; 
stroke:#C2C2C2; stroke-width:0.0500; stroke-opacity:1; 
stroke-linecap:round; stroke-linejoin:round;">
<circle cx="86.5886" cy="81.9638" r="3.5000" /> 
<circle cx="79.0174" cy="86.9950" r="2.0000" /> 
<circle cx="54.4322" cy="43.7948" r="3.5000" /> 
<circle cx="77.7474" cy="94.6404" r="2.0000" /> 
</g>
<g style="fill:none; 
stroke:#C2C2C2; stroke-width:0.1500; stroke-opacity:1; 
stroke-linecap:round; stroke-linejoin:round;">
<g transform="rotate(-90.000000 103.8809 69.4709)">
<text x="103.8809" y="69.9709"
textLength="5.4881" font-size="1.3333" lengthAdjust="spacingAndGlyphs"
text-anchor="middle" opacity="0" stroke-opacity="0">50,007</text>
</g>
<g class="stroked-text"><desc>50,007</desc>
<path d="M103.3357 71.3756
L103.3357 71.8518
" />
<path d="M103.3357 71.8518
L103.8119 71.8995
" />
<path d="M103.8119 71.8995
L103.7643 71.8518
" />
<path d="M103.7643 71.8518
L103.7166 71.7566
" />
<path d="M103.7166 71.7566
L103.7166 71.5185
" />
<path d="M103.7166 71.5185
L103.7643 71.4233
" />
<path d="M103.7643 71.4233
L103.8119 71.3756
" />
<path d="M103.8119 71.3756
L103.9071 71.3280
" />
<path d="M103.9071 71.3280
L104.1452 71.3280
" />
<path d="M104.1452 71.3280
L104.2404 71.3756
" />
<path d="M104.2404 71.3756
L104.2881 71.4233
" />
<path d="M104.2881 71.4233
L104.3357 71.5185
" />
<path d="M104.3357 71.5185
L104.3357 71.7566
" />
<path d="M104.3357 71.7566
L104.2881 71.8518
" />
<path d="M104.2881 71.8518
L104.2404 71.8995
" />
<path d="M103.3357 70.7090
L103.3357 70.6137
" />
<path d="M103.3357 70.6137
L103.3833 70.5185
" />
<path d="M103.3833 70.5185
L103.4309 70.4709
" />
<path d="M103.4309 70.4709
L103.5262 70.4233
" />
<path d="M103.5262 70.4233
L103.7166 70.3756
" />
<path d="M103.7166 70.3756
L103.9547 70.3756
" />
<path d="M103.9547 70.3756
L104.1452 70.4233
" />
<path d="M104.1452 70.4233
L104.2404 70.4709
" />
<path d="M104.2404 70.4709
L104.2881 70.5185
" />
<path d="M104.2881 70.5185
L104.3357 70.6137
" />
<path d="M104.3357 70.6137
L104.3357 70.7090
" />
<path d="M104.3357 70.7090
L104.2881 70.8042
" />
<path d="M104.2881 70.8042
L104.2404 70.8518
" />
<path d="M104.2404 70.8518
L104.1452 70.8995
" />
<path d="M104.1452 70.8995
L103.9547 70.9471
" />
<path d="M103.9547 70.9471
L103.7166 70.9471
" />
<path d="M103.7166 70.9471
L103.5262 70.8995
" />
<path d="M103.5262 70.8995
L103.4309 70.8518
" />
<path d="M103.4309 70.8518
L103.3833 70.8042
" />
<path d="M103.3833 70.8042
L103.3357 70.7090
" />
<path d="M104.2881 69.8995
L104.3357 69.8995
" />
<path d="M104.3357 69.8995
L104.4309 69.9471
" />
<path d="M104.4309 69.9471
L104.4785 69.9947
" />
<path d="M103.3357 69.2804
L103.3357 69.1852
" />
<path d="M103.3357 69.1852
L103.3833 69.0899
" />
<path d="M103.3833 69.0899
L103.4309 69.0423
" />
<path d="M103.4309 69.0423
L103.5262 68.9947
" />
<path d="M103.5262 68.9947
L103.7166 68.9471
" />
<path d="M103.7166 68.9471
L103.9547 68.9471
" />
<path d="M103.9547 68.9471
L104.1452 68.9947
" />
<path d="M104.1452 68.9947
L104.2404 69.0423
" />
<path d="M104.2404 69.0423
L104.2881 69.0899
" />
<path d="M104.2881 69.0899
L104.3357 69.1852
" />
<path d="M104.3357 69.1852
L104.3357 69.2804
" />
<path d="M104.3357 69.2804
L104.2881 69.3756
" />
<path d="M104.2881 69.3756
L104.2404 69.4233
" />
<path d="M104.2404 69.4233
L104.1452 69.4709
" />
<path d="M104.1452 69.4709
L103.9547 69.5185
" />
<path d="M103.9547 69.5185
L103.7166 69.5185
" />
<path d="M103.7166 69.5185
L103.5262 69.4709
" />
<path d="M103.5262 69.4709
L103.4309 69.4233
" />
<path d="M103.4309 69.4233
L103.3833 69.3756
" />
<path d="M103.3833 69.3756
L103.3357 69.2804
" />
<path d="M103.3357 68.3280
L103.3357 68.2328
" />
<path d="M103.3357 68.2328
L103.3833 68.1376
" />
<path d="M103.3833 68.1376
L103.4309 68.0899
" />
<path d="M103.4309 68.0899
L103.5262 68.0423
" />
<path d="M103.5262 68.0423
L103.7166 67.9947
" />
<path d="M103.7166 67.9947
L103.9547 67.9947
" />
<path d="M103.9547 67.9947
L104.1452 68.0423
" />
<path d="M104.1452 68.0423
L104.2404 68.0899
" />
<path d="M104.2404 68.0899
L104.2881 68.1376
" />
<path d="M104.2881 68.1376
L104.3357 68.2328
" />
<path d="M104.3357 68.2328
L104.3357 68.3280
" />
<path d="M104.3357 68.3280
L104.2881 68.4233
" />
<path d="M104.2881 68.4233
L104.2404 68.4709
" />
<path d="M104.2404 68.4709
L104.1452 68.5185
" />
<path d="M104.1452 68.5185
L103.9547 68.5661
" />
<path d="M103.9547 68.5661
L103.7166 68.5661
" />
<path d="M103.7166 68.5661
L103.5262 68.5185
" />
<path d="M103.5262 68.5185
L103.4309 68.4709
" />
<path d="M103.4309 68.4709
L103.3833 68.4233
" />
<path d="M103.3833 68.4233
L103.3357 68.3280
" />
<path d="M103.3357 67.6614
L103.3357 66.9947
" />
<path d="M103.3357 66.9947
L104.3357 67.4233
" />
</g></g>
<g style="fill:none; 
stroke:#C2C2C2; stroke-width:0.1000; stroke-opacity:1; 
stroke-linecap:round; stroke-linejoin:round;">
<path d="M69.1576 94.4744
L105.6173 94.4744
" />
<path d="M105.6173 44.4674
L98.1080 44.4674
" />
<path d="M105.0309 94.4744
L105.0309 44.4674
" />
<path d="M105.0309 94.4744
L104.4444 93.3479
" />
<path d="M105.0309 94.4744
L105.6173 93.3479
" />
<path d="M105.0309 44.4674
L105.6173 45.5939
" />
<path d="M105.0309 44.4674
L104.4444 45.5939
" />
</g>
<g style="fill:none; 
stroke:#C2C2C2; stroke-width:0.1500; stroke-opacity:1; 
stroke-linecap:round; stroke-linejoin:round;">
<text x="72.6097" y="36.0938"
textLength="6.4405" font-size="1.3333" lengthAdjust="spacingAndGlyphs"
text-anchor="middle" opacity="0" stroke-opacity="0">49,9967</text>
<g class="stroked-text"><desc>49,9967</desc>
<path d="M70.1811 35.3819
L70.1811 36.0486
" />
<path d="M69.9430 35.0010
L69.7049 35.7153
" />
<path d="M69.7049 35.7153
L70.3239 35.7153
" />
<path d="M70.7525 36.0486
L70.9430 36.0486
" />
<path d="M70.9430 36.0486
L71.0382 36.0010
" />
<path d="M71.0382 36.0010
L71.0858 35.9534
" />
<path d="M71.0858 35.9534
L71.1811 35.8105
" />
<path d="M71.1811 35.8105
L71.2287 35.6200
" />
<path d="M71.2287 35.6200
L71.2287 35.2391
" />
<path d="M71.2287 35.2391
L71.1811 35.1439
" />
<path d="M71.1811 35.1439
L71.1335 35.0962
" />
<path d="M71.1335 35.0962
L71.0382 35.0486
" />
<path d="M71.0382 35.0486
L70.8477 35.0486
" />
<path d="M70.8477 35.0486
L70.7525 35.0962
" />
<path d="M70.7525 35.0962
L70.7049 35.1439
" />
<path d="M70.7049 35.1439
L70.6573 35.2391
" />
<path d="M70.6573 35.2391
L70.6573 35.4772
" />
<path d="M70.6573 35.4772
L70.7049 35.5724
" />
<path d="M70.7049 35.5724
L70.7525 35.6200
" />
<path d="M70.7525 35.6200
L70.8477 35.6677
" />
<path d="M70.8477 35.6677
L71.0382 35.6677
" />
<path d="M71.0382 35.6677
L71.1335 35.6200
" />
<path d="M71.1335 35.6200
L71.1811 35.5724
" />
<path d="M71.1811 35.5724
L71.2287 35.4772
" />
<path d="M71.7049 36.0010
L71.7049 36.0486
" />
<path d="M71.7049 36.0486
L71.6573 36.1439
" />
<path d="M71.6573 36.1439
L71.6097 36.1915
" />
<path d="M72.1811 36.0486
L72.3716 36.0486
" />
<path d="M72.3716 36.0486
L72.4668 36.0010
" />
<path d="M72.4668 36.0010
L72.5144 35.9534
" />
<path d="M72.5144 35.9534
L72.6096 35.8105
" />
<path d="M72.6096 35.8105
L72.6573 35.6200
" />
<path d="M72.6573 35.6200
L72.6573 35.2391
" />
<path d="M72.6573 35.2391
L72.6096 35.1439
" />
<path d="M72.6096 35.1439
L72.5620 35.0962
" />
<path d="M72.5620 35.0962
L72.4668 35.0486
" />
<path d="M72.4668 35.0486
L72.2763 35.0486
" />
<path d="M72.2763 35.0486
L72.1811 35.0962
" />
<path d="M72.1811 35.0962
L72.1335 35.1439
" />
<path d="M72.1335 35.1439
L72.0858 35.2391
" />
<path d="M72.0858 35.2391
L72.0858 35.4772
" />
<path d="M72.0858 35.4772
L72.1335 35.5724
" />
<path d="M72.1335 35.5724
L72.1811 35.6200
" />
<path d="M72.1811 35.6200
L72.2763 35.6677
" />
<path d="M72.2763 35.6677
L72.4668 35.6677
" />
<path d="M72.4668 35.6677
L72.5620 35.6200
" />
<path d="M72.5620 35.6200
L72.6096 35.5724
" />
<path d="M72.6096 35.5724
L72.6573 35.4772
" />
<path d="M73.1335 36.0486
L73.3239 36.0486
" />
<path d="M73.3239 36.0486
L73.4192 36.0010
" />
<path d="M73.4192 36.0010
L73.4668 35.9534
" />
<path d="M73.4668 35.9534
L73.5620 35.8105
" />
<path d="M73.5620 35.8105
L73.6096 35.6200
" />
<path d="M73.6096 35.6200
L73.6096 35.2391
" />
<path d="M73.6096 35.2391
L73.5620 35.1439
" />
<path d="M73.5620 35.1439
L73.5144 35.0962
" />
<path d="M73.5144 35.0962
L73.4192 35.0486
" />
<path d="M73.4192 35.0486
L73.2287 35.0486
" />
<path d="M73.2287 35.0486
L73.1335 35.0962
" />
<path d="M73.1335 35.0962
L73.0858 35.1439
" />
<path d="M73.0858 35.1439
L73.0382 35.2391
" />
<path d="M73.0382 35.2391
L73.0382 35.4772
" />
<path d="M73.0382 35.4772
L73.0858 35.5724
" />
<path d="M73.0858 35.5724
L73.1335 35.6200
" />
<path d="M73.1335 35.6200
L73.2287 35.6677
" />
<path d="M73.2287 35.6677
L73.4192 35.6677
" />
<path d="M73.4192 35.6677
L73.5144 35.6200
" />
<path d="M73.5144 35.6200
L73.5620 35.5724
" />
<path d="M73.5620 35.5724
L73.6096 35.4772
" />
<path d="M74.4668 35.0486
L74.2763 35.0486
" />
<path d="M74.2763 35.0486
L74.1811 35.0962
" />
<path d="M74.1811 35.0962
L74.1335 35.1439
" />
<path d="M74.1335 35.1439
L74.0382 35.2867
" />
<path d="M74.0382 35.2867
L73.9906 35.4772
" />
<path d="M73.9906 35.4772
L73.9906 35.8581
" />
<path d="M73.9906 35.8581
L74.0382 35.9534
" />
<path d="M74.0382 35.9534
L74.0858 36.0010
" />
<path d="M74.0858 36.0010
L74.1811 36.0486
" />
<path d="M74.1811 36.0486
L74.3716 36.0486
" />
<path d="M74.3716 36.0486
L74.4668 36.0010
" />
<path d="M74.4668 36.0010
L74.5144 35.9534
" />
<path d="M74.5144 35.9534
L74.5620 35.8581
" />
<path d="M74.5620 35.8581
L74.5620 35.6200
" />
<path d="M74.5620 35.6200
L74.5144 35.5248
" />
<path d="M74.5144 35.5248
L74.4668 35.4772
" />
<path d="M74.4668 35.4772
L74.3716 35.4296
" />
<path d="M74.3716 35.4296
L74.1811 35.4296
" />
<path d="M74.1811 35.4296
L74.0858 35.4772
" />
<path d="M74.0858 35.4772
L74.0382 35.5248
" />
<path d="M74.0382 35.5248
L73.9906 35.6200
" />
<path d="M74.8954 35.0486
L75.5620 35.0486
" />
<path d="M75.5620 35.0486
L75.1335 36.0486
" />
</g></g>
<g style="fill:none; 
stroke:#C2C2C2; stroke-width:0.1000; stroke-opacity:1; 
stroke-linecap:round; stroke-linejoin:round;">
<path d="M97.6080 43.9674
L97.6080 36.1574
" />
<path d="M47.6113 36.1574
L47.6113 46.8160
" />
<path d="M97.6080 36.7438
L47.6113 36.7438
" />
<path d="M97.6080 36.7438
L96.4815 37.3302
" />
<path d="M97.6080 36.7438
L96.4815 36.1574
" />
<path d="M47.6113 36.7438
L48.7378 36.1574
" />
<path d="M47.6113 36.7438
L48.7378 37.3302
" />
</g>
<g style="fill:none; 
stroke:#D0D2CD; stroke-width:0.0500; stroke-opacity:1; 
stroke-linecap:round; stroke-linejoin:round;">
<circle cx="62.6110" cy="71.7550" r="2.0000" /> 
<path style="fill:none; 
stroke:#D0D2CD; stroke-width:0.0500; stroke-opacity:1; 
stroke-linecap:round; stroke-linejoin:round;fill:none"
d="M 97.6080,77.7240
85.4456,77.7240
68.6576,94.4744
47.6113,94.4744
47.6113,47.3160
56.0651,47.3252
58.6952,44.4680
97.6080,44.4674
Z" /> 
</g>
<g style="fill:#000000; fill-opacity:1.0000; stroke:none;">
<circle cx="95.5518" cy="51.4310" r="0.5000" /> 
</g>
<g style="fill:#000000; fill-opacity:1.0000; stroke:none;">
<circle cx="95.5518" cy="53.9710" r="0.5000" /> 
</g>
<g style="fill:#000000; fill-opacity:1.0000; stroke:none;">
<circle cx="95.5518" cy="56.5110" r="0.5000" /> 
</g>
<g style="fill:#000000; fill-opacity:1.0000; stroke:none;">
<circle cx="95.5518" cy="59.0510" r="0.5000" /> 
</g>
<g style="fill:#000000; fill-opacity:1.0000; stroke:none;">
<circle cx="95.5518" cy="61.5910" r="0.5000" /> 
</g>
<g style="fill:#000000; fill-opacity:1.0000; stroke:none;">
<circle cx="95.5518" cy="64.1310" r="0.5000" /> 
</g>
<g style="fill:#000000; fill-opacity:1.0000; stroke:none;">
<circle cx="68.8818" cy="69.2110" r="0.5000" /> 
</g>
<g style="fill:#000000; fill-opacity:1.0000; stroke:none;">
<circle cx="68.8818" cy="71.7510" r="0.5000" /> 
</g>
<g style="fill:#000000; fill-opacity:1.0000; stroke:none;">
<circle cx="71.4218" cy="69.2110" r="0.5000" /> 
</g>
<g style="fill:#000000; fill-opacity:1.0000; stroke:none;">
<circle cx="71.4218" cy="71.7510" r="0.5000" /> 
</g>
<g style="fill:#000000; fill-opacity:1.0000; stroke:none;">
<circle cx="73.9618" cy="69.2110" r="0.5000" /> 
</g>
<g style="fill:#000000; fill-opacity:1.0000; stroke:none;">
<circle cx="73.9618" cy="71.7510" r="0.5000" /> 
</g>
<g style="fill:#000000; fill-opacity:1.0000; stroke:none;">
<circle cx="76.5018" cy="69.2110" r="0.5000" /> 
</g>
<g style="fill:#000000; fill-opacity:1.0000; stroke:none;">
<circle cx="76.5018" cy="71.7510" r="0.5000" /> 
</g>
<g style="fill:#000000; fill-opacity:1.0000; stroke:none;">
<circle cx="79.0418" cy="69.2110" r="0.5000" /> 
</g>
<g style="fill:#000000; fill-opacity:1.0000; stroke:none;">
<circle cx="79.0418" cy="71.7510" r="0.5000" /> 
</g>
<g style="fill:#000000; fill-opacity:1.0000; stroke:none;">
<circle cx="81.5818" cy="69.2110" r="0.5000" /> 
</g>
<g style="fill:#000000; fill-opacity:1.0000; stroke:none;">
<circle cx="81.5818" cy="71.7510" r="0.5000" /> 
</g>
<g style="fill:#000000; fill-opacity:1.0000; stroke:none;">
<circle cx="84.1218" cy="69.2110" r="0.5000" /> 
</g>
<g style="fill:#000000; fill-opacity:1.0000; stroke:none;">
<circle cx="84.1218" cy="71.7510" r="0.5000" /> 
</g>
<g style="fill:#000000; fill-opacity:1.0000; stroke:none;">
<circle cx="86.6618" cy="69.2110" r="0.5000" /> 
</g>
<g style="fill:#000000; fill-opacity:1.0000; stroke:none;">
<circle cx="86.6618" cy="71.7510" r="0.5000" /> 
</g>
<g style="fill:#000000; fill-opacity:1.0000; stroke:none;">
<circle cx="89.2018" cy="69.2110" r="0.5000" /> 
</g>
<g style="fill:#000000; fill-opacity:1.0000; stroke:none;">
<circle cx="91.7418" cy="69.2110" r="0.5000" /> 
</g>
<g style="fill:#000000; fill-opacity:1.0000; stroke:none;">
<circle cx="89.2018" cy="66.6710" r="0.5000" /> 
</g>
<g style="fill:#000000; fill-opacity:1.0000; stroke:none;">
<circle cx="91.7418" cy="66.6710" r="0.5000" /> 
</g>
<g style="fill:#000000; fill-opacity:1.0000; stroke:none;">
<circle cx="89.2018" cy="64.1310" r="0.5000" /> 
</g>
<g style="fill:#000000; fill-opacity:1.0000; stroke:none;">
<circle cx="91.7418" cy="64.1310" r="0.5000" /> 
</g>
<g style="fill:#000000; fill-opacity:1.0000; stroke:none;">
<circle cx="89.2018" cy="61.5910" r="0.5000" /> 
</g>
<g style="fill:#000000; fill-opacity:1.0000; stroke:none;">
<circle cx="91.7418" cy="61.5910" r="0.5000" /> 
</g>
<g style="fill:#000000; fill-opacity:1.0000; stroke:none;">
<circle cx="89.2018" cy="59.0510" r="0.5000" /> 
</g>
<g style="fill:#000000; fill-opacity:1.0000; stroke:none;">
<circle cx="91.7418" cy="59.0510" r="0.5000" /> 
</g>
<g style="fill:#000000; fill-opacity:1.0000; stroke:none;">
<circle cx="89.2018" cy="56.5110" r="0.5000" /> 
</g>
<g style="fill:#000000; fill-opacity:1.0000; stroke:none;">
<circle cx="91.7418" cy="56.5110" r="0.5000" /> 
</g>
<g style="fill:#000000; fill-opacity:1.0000; stroke:none;">
<circle cx="89.2018" cy="53.9710" r="0.5000" /> 
</g>
<g style="fill:#000000; fill-opacity:1.0000; stroke:none;">
<circle cx="91.7418" cy="53.9710" r="0.5000" /> 
</g>
<g style="fill:#000000; fill-opacity:1.0000; stroke:none;">
<circle cx="89.2018" cy="51.4310" r="0.5000" /> 
</g>
<g style="fill:#000000; fill-opacity:1.0000; stroke:none;">
<circle cx="91.7418" cy="51.4310" r="0.5000" /> 
</g>
<g style="fill:#000000; fill-opacity:1.0000; stroke:none;">
<circle cx="89.2018" cy="48.8910" r="0.5000" /> 
</g>
<g style="fill:#000000; fill-opacity:1.0000; stroke:none;">
<circle cx="89.2018" cy="46.3510" r="0.5000" /> 
</g>
<g style="fill:#000000; fill-opacity:1.0000; stroke:none;">
<circle cx="86.6618" cy="48.8910" r="0.5000" /> 
</g>
<g style="fill:#000000; fill-opacity:1.0000; stroke:none;">
<circle cx="86.6618" cy="46.3510" r="0.5000" /> 
</g>
<g style="fill:#000000; fill-opacity:1.0000; stroke:none;">
<circle cx="84.1218" cy="48.8910" r="0.5000" /> 
</g>
<g style="fill:#000000; fill-opacity:1.0000; stroke:none;">
<circle cx="84.1218" cy="46.3510" r="0.5000" /> 
</g>
<g style="fill:#000000; fill-opacity:1.0000; stroke:none;">
<circle cx="81.5818" cy="48.8910" r="0.5000" /> 
</g>
<g style="fill:#000000; fill-opacity:1.0000; stroke:none;">
<circle cx="81.5818" cy="46.3510" r="0.5000" /> 
</g>
<g style="fill:#000000; fill-opacity:1.0000; stroke:none;">
<circle cx="79.0418" cy="48.8910" r="0.5000" /> 
</g>
<g style="fill:#000000; fill-opacity:1.0000; stroke:none;">
<circle cx="79.0418" cy="46.3510" r="0.5000" /> 
</g>
<g style="fill:#000000; fill-opacity:1.0000; stroke:none;">
<circle cx="76.5018" cy="48.8910" r="0.5000" /> 
</g>
<g style="fill:#000000; fill-opacity:1.0000; stroke:none;">
<circle cx="76.5018" cy="46.3510" r="0.5000" /> 
</g>
<g style="fill:#000000; fill-opacity:1.0000; stroke:none;">
<circle cx="73.9618" cy="48.8910" r="0.5000" /> 
</g>
<g style="fill:#000000; fill-opacity:1.0000; stroke:none;">
<circle cx="73.9618" cy="46.3510" r="0.5000" /> 
</g>
<g style="fill:#000000; fill-opacity:1.0000; stroke:none;">
<circle cx="71.4218" cy="48.8910" r="0.5000" /> 
</g>
<g style="fill:#000000; fill-opacity:1.0000; stroke:none;">
<circle cx="71.4218" cy="46.3510" r="0.5000" /> 
</g>
<g style="fill:#000000; fill-opacity:1.0000; stroke:none;">
<circle cx="68.8818" cy="48.8910" r="0.5000" /> 
</g>
<g style="fill:#000000; fill-opacity:1.0000; stroke:none;">
<circle cx="66.3418" cy="48.8910" r="0.5000" /> 
</g>
<g style="fill:#000000; fill-opacity:1.0000; stroke:none;">
<circle cx="68.8818" cy="51.4310" r="0.5000" /> 
</g>
<g style="fill:#000000; fill-opacity:1.0000; stroke:none;">
<circle cx="66.3418" cy="51.4310" r="0.5000" /> 
</g>
<g style="fill:#000000; fill-opacity:1.0000; stroke:none;">
<circle cx="68.8818" cy="53.9710" r="0.5000" /> 
</g>
<g style="fill:#000000; fill-opacity:1.0000; stroke:none;">
<circle cx="66.3418" cy="53.9710" r="0.5000" /> 
</g>
<g style="fill:#000000; fill-opacity:1.0000; stroke:none;">
<circle cx="68.8818" cy="56.5110" r="0.5000" /> 
</g>
<g style="fill:#000000; fill-opacity:1.0000; stroke:none;">
<circle cx="66.3418" cy="56.5110" r="0.5000" /> 
</g>
<g style="fill:#000000; fill-opacity:1.0000; stroke:none;">
<circle cx="68.8818" cy="59.0510" r="0.5000" /> 
</g>
<g style="fill:#000000; fill-opacity:1.0000; stroke:none;">
<circle cx="66.3418" cy="59.0510" r="0.5000" /> 
</g>
<g style="fill:#000000; fill-opacity:1.0000; stroke:none;">
<circle cx="68.8818" cy="61.5910" r="0.5000" /> 
</g>
<g style="fill:#000000; fill-opacity:1.0000; stroke:none;">
<circle cx="66.3418" cy="61.5910" r="0.5000" /> 
</g>
<g style="fill:#000000; fill-opacity:1.0000; stroke:none;">
<circle cx="68.8818" cy="64.1310" r="0.5000" /> 
</g>
<g style="fill:#000000; fill-opacity:1.0000; stroke:none;">
<circle cx="66.3418" cy="64.1310" r="0.5000" /> 
</g>
<g style="fill:#000000; fill-opacity:1.0000; stroke:none;">
<circle cx="68.8818" cy="66.6710" r="0.5000" /> 
</g>
<g style="fill:#000000; fill-opacity:1.0000; stroke:none;">
<circle cx="66.3418" cy="66.6710" r="0.5000" /> 
</g> 
</svg>
